<svg width="307" height="428" viewBox="0 0 307 428" fill="none" xmlns="http://www.w3.org/2000/svg">
<path d="M120.692 1.65589L118.419 9.44737L111.277 38.6654L91.1489 86.3882C84.1149 105.326 69.7224 143.98 68.4238 147.097C67.1252 150.213 52.5162 196.443 45.374 219.168L21.6749 300.979C15.182 324.461 2.00139 372.076 1.22224 374.673C0.443095 377.27 1.33046 378.569 1.87153 378.893L189.841 427.265L239.187 423.37L270.678 261.047L286.585 168.199L293.727 111.061L298.272 73.4024C300.328 63.3384 304.83 41.5223 306.389 34.7697C307.947 28.0171 305.739 27.6275 304.441 28.2768C246.437 19.4031 129.457 1.39618 125.561 0.357312C121.666 -0.681552 120.692 0.790172 120.692 1.65589Z" fill="#D0B197"/>
<path d="M306.713 33.7958C307.233 31.4583 306.93 30.4411 306.713 30.2247C304.895 30.2247 298.597 56.6291 295.675 69.8314L294.377 73.4025L269.379 140.604L252.173 193.846L244.057 222.09L230.422 410.059L239.512 423.37L258.99 325.652L272.625 253.905L280.417 205.208L286.261 172.095L293.727 113.334L298.597 72.4285C301.086 60.5249 306.194 36.1332 306.713 33.7958Z" fill="#AF886F"/>
<path d="M240.161 401.294C240.421 407.267 239.62 418.5 239.187 423.37L191.789 427.265L207.047 366.232L219.384 315.588L234.642 255.528L244.381 221.116L243.407 307.471C242.217 336.257 239.901 395.32 240.161 401.294Z" fill="#ECD0B9"/>
<line x1="23.7169" y1="293.744" x2="212.04" y2="342.448" stroke="#AE8663"/>
<line x1="20.4704" y1="306.081" x2="208.794" y2="354.785" stroke="#AE8663"/>
<line x1="16.5777" y1="319.055" x2="205.789" y2="367.988" stroke="#AE8663"/>
<line x1="13.3332" y1="330.734" x2="203.173" y2="379.829" stroke="#AE8663"/>
<line x1="10.0869" y1="342.421" x2="199.927" y2="391.517" stroke="#AE8663"/>
<line x1="6.8404" y1="354.108" x2="196.68" y2="403.204" stroke="#AE8663"/>
<line x1="2.97065" y1="368.345" x2="194.068" y2="417.766" stroke="#AE8663"/>
<line x1="35.7918" y1="296.892" x2="12.3317" y2="381.348" stroke="#AE8663"/>
<line x1="47.5648" y1="300.138" x2="24.1047" y2="384.595" stroke="#AE8663"/>
<line x1="59.2519" y1="303.385" x2="35.7918" y2="387.841" stroke="#AE8663"/>
<line x1="70.9392" y1="305.982" x2="47.4791" y2="390.438" stroke="#AE8663"/>
<line x1="81.9771" y1="309.228" x2="58.517" y2="393.685" stroke="#AE8663"/>
<line x1="93.0148" y1="311.826" x2="69.5547" y2="396.282" stroke="#AE8663"/>
<line x1="104.053" y1="315.072" x2="80.5928" y2="399.528" stroke="#AE8663"/>
<line x1="115.091" y1="317.669" x2="91.6307" y2="402.126" stroke="#AE8663"/>
<line x1="126.129" y1="320.266" x2="102.669" y2="404.723" stroke="#AE8663"/>
<line x1="137.167" y1="322.864" x2="113.707" y2="407.32" stroke="#AE8663"/>
<line x1="148.205" y1="326.11" x2="124.744" y2="410.566" stroke="#AE8663"/>
<line x1="159.243" y1="329.356" x2="135.782" y2="413.813" stroke="#AE8663"/>
<line x1="170.28" y1="331.954" x2="146.82" y2="416.41" stroke="#AE8663"/>
<line x1="181.318" y1="334.551" x2="157.858" y2="419.007" stroke="#AE8663"/>
<line x1="192.356" y1="337.148" x2="168.896" y2="421.604" stroke="#AE8663"/>
<line x1="203.394" y1="340.394" x2="179.934" y2="424.851" stroke="#AE8663"/>
<path d="M302.168 43.2105C304.506 34.6398 306.172 30.9822 306.713 30.2247C306.713 27.8872 305.198 27.9521 304.441 28.2768L282.04 24.7057L228.149 16.5896L183.997 9.77201L150.559 4.57769C143.309 3.38733 128.094 0.876756 125.237 0.357324C122.38 -0.162108 121.449 0.357324 121.341 0.681969L191.464 11.7199L263.86 22.7578C275.764 24.5975 300.155 28.4067 302.493 28.9261C304.83 29.4455 305.631 30.0082 305.739 30.2247L302.168 40.2887L295.026 69.8314L282.365 103.919L269.379 138.656L257.043 175.016L234.642 250.983L212.891 337.988L191.14 427.266H192.114L197.957 403.566L214.189 337.988L226.526 287.993L235.941 250.983L248.926 205.533L258.341 175.016L270.353 138.656L283.014 104.568L295.675 69.8314C296.866 64.5288 299.831 51.7811 302.168 43.2105Z" fill="#FEF0E3" fill-opacity="0.57"/>
<path d="M83.0431 203.961L85.494 204.594C84.9869 205.713 84.3112 206.657 83.4669 207.426C82.6225 208.196 81.6146 208.719 80.4429 208.996C79.2741 209.265 77.945 209.207 76.4558 208.822C75.3665 208.541 74.4411 208.085 73.6795 207.453C72.9265 206.824 72.3518 206.06 71.9555 205.16C71.562 204.252 71.3613 203.236 71.3533 202.111C71.3566 200.979 71.5686 199.775 71.9892 198.498L72.5873 196.682C73.0079 195.405 73.5589 194.293 74.2403 193.345C74.9329 192.392 75.7249 191.627 76.6163 191.051C77.5163 190.478 78.4918 190.109 79.5429 189.946C80.5939 189.782 81.6938 189.849 82.8427 190.146C84.2468 190.508 85.3487 191.074 86.1484 191.842C86.948 192.61 87.4647 193.522 87.6984 194.579C87.9433 195.63 87.9316 196.772 87.6633 198.007L85.2125 197.374C85.3738 196.492 85.3931 195.705 85.2705 195.012C85.1506 194.31 84.8477 193.716 84.362 193.228C83.8763 192.74 83.1527 192.372 82.191 192.124C81.3656 191.911 80.5871 191.877 79.8557 192.024C79.1327 192.172 78.465 192.475 77.8525 192.933C77.2486 193.393 76.7096 193.992 76.2357 194.73C75.7617 195.468 75.3653 196.322 75.0464 197.29L74.4401 199.131C74.1459 200.024 73.9632 200.887 73.8919 201.72C73.8292 202.555 73.896 203.32 74.0922 204.014C74.2884 204.707 74.6323 205.303 75.1238 205.802C75.618 206.292 76.2778 206.643 77.1033 206.856C78.15 207.127 79.0376 207.179 79.766 207.014C80.4945 206.849 81.1165 206.502 81.6321 205.974C82.1562 205.448 82.6265 204.777 83.0431 203.961ZM88.1404 204.381L88.2353 204.093C88.557 203.116 89 202.248 89.5643 201.487C90.1313 200.719 90.7889 200.096 91.537 199.619C92.2878 199.134 93.1068 198.82 93.9939 198.678C94.8838 198.527 95.8095 198.576 96.7712 198.824C97.7413 199.075 98.5558 199.475 99.2147 200.026C99.8849 200.57 100.389 201.226 100.728 201.993C101.077 202.753 101.258 203.592 101.27 204.51C101.284 205.42 101.13 206.363 100.809 207.34L100.714 207.628C100.392 208.604 99.9491 209.473 99.3848 210.233C98.8205 210.993 98.1587 211.615 97.3994 212.098C96.6513 212.575 95.8323 212.889 94.9424 213.039C94.0638 213.184 93.1394 213.131 92.1693 212.88C91.1991 212.63 90.3833 212.233 89.7216 211.691C89.0627 211.141 88.5584 210.485 88.2087 209.724C87.8703 208.958 87.6939 208.119 87.6795 207.21C87.6651 206.3 87.8187 205.357 88.1404 204.381ZM90.5968 204.702L90.5019 204.99C90.2792 205.667 90.1497 206.326 90.1134 206.969C90.0799 207.603 90.1492 208.192 90.3214 208.735C90.502 209.279 90.7952 209.749 91.2008 210.144C91.6091 210.53 92.1409 210.808 92.7962 210.977C93.4429 211.144 94.0514 211.161 94.6217 211.027C95.2033 210.888 95.7314 210.63 96.206 210.254C96.6806 209.879 97.0963 209.415 97.4532 208.864C97.8214 208.307 98.1168 207.691 98.3395 207.014L98.4344 206.726C98.6543 206.059 98.7768 205.406 98.8018 204.77C98.8381 204.127 98.7659 203.533 98.5853 202.988C98.4159 202.437 98.1284 201.964 97.7228 201.57C97.3257 201.177 96.7995 200.897 96.1443 200.727C95.4975 200.56 94.8834 200.547 94.3018 200.686C93.7288 200.828 93.1993 201.09 92.7135 201.472C92.2389 201.848 91.8217 202.315 91.4621 202.874C91.1052 203.425 90.8167 204.035 90.5968 204.702ZM105.017 215.926L102.655 215.316L107.588 200.34C107.909 199.364 108.359 198.587 108.936 198.012C109.525 197.43 110.216 197.056 111.01 196.89C111.806 196.715 112.672 196.748 113.608 196.99C113.88 197.06 114.147 197.147 114.409 197.251C114.678 197.357 114.934 197.478 115.176 197.612L114.426 199.47C114.261 199.382 114.066 199.3 113.842 199.224C113.626 199.151 113.407 199.085 113.186 199.028C112.684 198.898 112.217 198.886 111.785 198.992C111.365 199.092 110.999 199.305 110.688 199.633C110.377 199.96 110.131 200.399 109.949 200.95L105.017 215.926ZM112.415 203.136L111.829 204.914L104.349 202.982L104.935 201.204L112.415 203.136ZM114.105 218.273L111.744 217.664L116.676 202.687C116.998 201.711 117.447 200.935 118.025 200.359C118.613 199.777 119.305 199.403 120.098 199.237C120.894 199.062 121.761 199.095 122.697 199.337C122.969 199.408 123.236 199.495 123.497 199.598C123.767 199.704 124.023 199.825 124.265 199.959L123.514 201.817C123.349 201.729 123.155 201.647 122.93 201.571C122.715 201.498 122.496 201.432 122.275 201.375C121.773 201.245 121.306 201.233 120.874 201.339C120.453 201.439 120.087 201.652 119.776 201.98C119.465 202.307 119.219 202.746 119.038 203.297L114.105 218.273ZM121.503 205.483L120.918 207.261L113.438 205.329L114.023 203.551L121.503 205.483ZM125.013 221.362C124.052 221.114 123.232 220.73 122.553 220.21C121.886 219.685 121.368 219.057 120.999 218.328C120.638 217.601 120.441 216.798 120.407 215.92C120.373 215.041 120.513 214.126 120.826 213.175L120.999 212.649C121.362 211.547 121.851 210.609 122.466 209.835C123.084 209.052 123.777 208.434 124.545 207.98C125.313 207.527 126.11 207.239 126.935 207.117C127.76 206.994 128.56 207.033 129.334 207.233C130.321 207.488 131.117 207.875 131.722 208.394C132.336 208.914 132.773 209.534 133.035 210.254C133.299 210.966 133.408 211.755 133.363 212.622C133.32 213.48 133.142 214.385 132.829 215.337L132.486 216.376L122.172 213.713L122.795 211.822L130.748 213.876L130.805 213.7C130.969 213.09 131.034 212.473 131 211.848C130.974 211.226 130.788 210.67 130.441 210.182C130.094 209.694 129.516 209.345 128.707 209.137C128.171 208.998 127.641 208.984 127.115 209.092C126.593 209.193 126.098 209.419 125.632 209.769C125.166 210.12 124.74 210.585 124.355 211.165C123.97 211.745 123.643 212.444 123.373 213.262L123.2 213.788C122.989 214.431 122.879 215.059 122.87 215.673C122.873 216.28 122.979 216.842 123.188 217.358C123.405 217.876 123.725 218.321 124.147 218.693C124.578 219.067 125.117 219.337 125.764 219.504C126.598 219.72 127.359 219.735 128.047 219.551C128.736 219.366 129.39 219.05 130.008 218.603L131.07 220.087C130.627 220.452 130.109 220.776 129.518 221.058C128.926 221.34 128.253 221.519 127.498 221.596C126.752 221.675 125.924 221.597 125.013 221.362ZM138.876 224.942C137.914 224.694 137.094 224.31 136.416 223.79C135.749 223.265 135.23 222.637 134.861 221.908C134.5 221.181 134.303 220.378 134.269 219.5C134.235 218.621 134.375 217.706 134.689 216.755L134.862 216.229C135.225 215.127 135.714 214.189 136.329 213.415C136.947 212.632 137.64 212.014 138.408 211.56C139.176 211.106 139.973 210.819 140.798 210.696C141.623 210.574 142.422 210.613 143.197 210.813C144.184 211.068 144.98 211.455 145.585 211.974C146.198 212.494 146.636 213.114 146.897 213.834C147.162 214.546 147.271 215.335 147.225 216.202C147.183 217.06 147.005 217.965 146.691 218.917L146.349 219.956L136.035 217.293L136.658 215.402L144.61 217.456L144.668 217.28C144.832 216.67 144.897 216.053 144.862 215.428C144.837 214.806 144.65 214.25 144.303 213.762C143.956 213.274 143.378 212.925 142.57 212.717C142.034 212.578 141.503 212.563 140.978 212.672C140.455 212.773 139.961 212.999 139.495 213.349C139.028 213.7 138.603 214.165 138.218 214.745C137.833 215.325 137.506 216.024 137.236 216.842L137.063 217.368C136.851 218.011 136.741 218.639 136.733 219.253C136.736 219.86 136.842 220.422 137.05 220.938C137.268 221.456 137.587 221.901 138.01 222.273C138.441 222.647 138.979 222.917 139.626 223.084C140.46 223.3 141.221 223.315 141.91 223.131C142.599 222.946 143.252 222.63 143.87 222.183L144.933 223.667C144.489 224.032 143.972 224.356 143.38 224.638C142.789 224.92 142.116 225.099 141.361 225.176C140.615 225.255 139.786 225.177 138.876 224.942ZM158.87 224.834C159.01 224.408 159.066 224.015 159.037 223.654C159.019 223.287 158.889 222.927 158.645 222.574C158.409 222.224 158.042 221.853 157.543 221.461C157.053 221.072 156.41 220.639 155.616 220.162C154.785 219.657 154.053 219.147 153.42 218.63C152.79 218.105 152.281 217.561 151.893 216.999C151.506 216.437 151.263 215.845 151.163 215.221C151.064 214.598 151.131 213.931 151.365 213.222C151.599 212.512 151.963 211.895 152.459 211.371C152.955 210.847 153.552 210.435 154.251 210.135C154.961 209.83 155.745 209.652 156.602 209.601C157.459 209.551 158.364 209.649 159.317 209.895C160.712 210.255 161.809 210.824 162.605 211.6C163.414 212.37 163.934 213.243 164.167 214.218C164.403 215.185 164.364 216.144 164.05 217.095L161.6 216.462C161.825 215.778 161.875 215.134 161.751 214.531C161.629 213.92 161.315 213.386 160.81 212.93C160.308 212.465 159.593 212.113 158.665 211.873C157.789 211.647 157.023 211.589 156.367 211.701C155.712 211.812 155.171 212.053 154.744 212.423C154.326 212.795 154.024 213.265 153.837 213.833C153.71 214.217 153.676 214.588 153.733 214.947C153.801 215.3 153.966 215.655 154.227 216.012C154.496 216.372 154.866 216.735 155.337 217.101C155.816 217.469 156.404 217.856 157.101 218.263C158.06 218.827 158.863 219.388 159.511 219.945C160.158 220.502 160.655 221.069 161 221.647C161.356 222.219 161.56 222.82 161.611 223.449C161.674 224.072 161.588 224.739 161.355 225.448C161.11 226.191 160.735 226.824 160.231 227.346C159.727 227.867 159.119 228.268 158.409 228.546C157.699 228.825 156.905 228.978 156.028 229.005C155.162 229.026 154.24 228.91 153.262 228.657C152.402 228.435 151.594 228.1 150.837 227.651C150.088 227.204 149.451 226.658 148.924 226.015C148.406 225.374 148.055 224.659 147.872 223.869C147.7 223.072 147.764 222.219 148.064 221.309L150.515 221.942C150.309 222.568 150.255 223.139 150.353 223.653C150.454 224.159 150.669 224.614 150.998 225.016C151.336 225.42 151.754 225.763 152.252 226.046C152.761 226.322 153.314 226.537 153.909 226.691C154.769 226.913 155.535 226.984 156.207 226.904C156.88 226.824 157.441 226.607 157.89 226.252C158.348 225.899 158.675 225.426 158.87 224.834ZM171.308 212.176L164.973 231.41L162.611 230.8L168.946 211.566L171.308 212.176ZM166.812 223.977L165.841 223.686C166.155 222.761 166.577 221.942 167.108 221.227C167.641 220.505 168.251 219.915 168.937 219.458C169.623 219.001 170.359 218.702 171.144 218.56C171.941 218.413 172.756 218.447 173.59 218.662C174.271 218.838 174.853 219.088 175.337 219.412C175.824 219.728 176.194 220.132 176.448 220.623C176.71 221.117 176.84 221.703 176.839 222.382C176.839 223.052 176.693 223.834 176.398 224.727L173.474 233.605L171.1 232.992L174.032 224.089C174.266 223.379 174.347 222.784 174.274 222.304C174.204 221.815 173.997 221.421 173.652 221.124C173.309 220.818 172.84 220.588 172.244 220.434C171.657 220.283 171.081 220.265 170.516 220.382C169.96 220.501 169.437 220.728 168.948 221.064C168.468 221.402 168.039 221.821 167.662 222.321C167.296 222.816 167.012 223.368 166.812 223.977ZM178.566 227.733L178.661 227.445C178.983 226.468 179.426 225.6 179.99 224.84C180.557 224.071 181.215 223.448 181.963 222.971C182.714 222.486 183.533 222.172 184.42 222.03C185.31 221.879 186.236 221.928 187.197 222.176C188.167 222.427 188.982 222.827 189.641 223.378C190.311 223.922 190.815 224.578 191.154 225.345C191.503 226.105 191.684 226.945 191.696 227.862C191.71 228.772 191.556 229.715 191.235 230.692L191.14 230.98C190.818 231.956 190.375 232.825 189.811 233.585C189.246 234.345 188.585 234.967 187.825 235.45C187.077 235.927 186.258 236.241 185.368 236.391C184.49 236.536 183.565 236.483 182.595 236.232C181.625 235.982 180.809 235.585 180.148 235.043C179.489 234.493 178.984 233.837 178.635 233.076C178.296 232.31 178.12 231.472 178.105 230.562C178.091 229.653 178.245 228.709 178.566 227.733ZM181.023 228.055L180.928 228.343C180.705 229.019 180.576 229.678 180.539 230.321C180.506 230.955 180.575 231.544 180.747 232.087C180.928 232.632 181.221 233.101 181.627 233.496C182.035 233.882 182.567 234.16 183.222 234.329C183.869 234.496 184.477 234.513 185.048 234.379C185.629 234.24 186.157 233.982 186.632 233.606C187.107 233.231 187.522 232.767 187.879 232.216C188.247 231.659 188.543 231.043 188.765 230.367L188.86 230.079C189.08 229.411 189.203 228.758 189.228 228.122C189.264 227.479 189.192 226.885 189.011 226.34C188.842 225.789 188.554 225.317 188.149 224.922C187.752 224.53 187.225 224.249 186.57 224.08C185.923 223.913 185.309 223.899 184.728 224.039C184.155 224.18 183.625 224.442 183.139 224.824C182.665 225.2 182.248 225.667 181.888 226.226C181.531 226.777 181.243 227.387 181.023 228.055ZM197.886 228.034L192.565 244.188L190.191 243.574L196.369 224.817L198.539 225.377L197.886 228.034ZM205.855 234.494L205.768 234.757C205.444 235.742 205.024 236.626 204.508 237.407C203.994 238.181 203.406 238.817 202.743 239.316C202.089 239.817 201.373 240.153 200.597 240.324C199.82 240.495 199.002 240.469 198.143 240.247C197.266 240.021 196.539 239.679 195.96 239.222C195.381 238.764 194.947 238.204 194.658 237.54C194.368 236.877 194.208 236.129 194.178 235.297C194.156 234.467 194.25 233.563 194.462 232.585L194.923 231.182C195.356 230.207 195.843 229.359 196.385 228.639C196.927 227.918 197.519 227.337 198.163 226.897C198.818 226.45 199.526 226.166 200.286 226.045C201.049 225.916 201.864 225.964 202.732 226.188C203.6 226.412 204.315 226.778 204.877 227.286C205.442 227.785 205.854 228.398 206.113 229.126C206.372 229.854 206.476 230.674 206.425 231.585C206.386 232.489 206.196 233.459 205.855 234.494ZM203.394 234.144L203.481 233.881C203.703 233.205 203.84 232.552 203.89 231.922C203.944 231.284 203.891 230.699 203.734 230.17C203.587 229.633 203.322 229.176 202.939 228.796C202.559 228.408 202.046 228.13 201.399 227.963C200.804 227.81 200.251 227.776 199.743 227.862C199.243 227.95 198.783 228.126 198.364 228.389C197.948 228.644 197.57 228.963 197.232 229.346C196.904 229.724 196.618 230.13 196.373 230.565L195.305 233.808C195.283 234.436 195.34 235.049 195.476 235.646C195.614 236.234 195.887 236.753 196.293 237.202C196.702 237.642 197.293 237.963 198.068 238.163C198.706 238.328 199.297 238.34 199.842 238.2C200.398 238.054 200.901 237.789 201.35 237.407C201.807 237.027 202.206 236.559 202.546 236.004C202.889 235.44 203.171 234.82 203.394 234.144Z" fill="#FBFBFB"/>
<path d="M62.6071 217.84L63.5744 218.09L61.6207 224.294C61.5142 224.632 61.3684 224.905 61.1832 225.112C61.0015 225.32 60.7826 225.455 60.5266 225.518C60.2729 225.586 59.9814 225.577 59.652 225.492C59.5654 225.47 59.4675 225.435 59.3585 225.388C59.246 225.341 59.1536 225.295 59.0814 225.25L59.327 224.488C59.3886 224.519 59.4599 224.549 59.5409 224.577C59.6209 224.609 59.6921 224.633 59.7545 224.649C59.8967 224.685 60.0243 224.691 60.1375 224.664C60.2507 224.638 60.3494 224.575 60.4334 224.475C60.5209 224.376 60.5942 224.232 60.6534 224.044L62.6071 217.84ZM62.9713 216.344C63.0197 216.191 63.1091 216.073 63.2396 215.993C63.37 215.912 63.5271 215.895 63.7108 215.943C63.898 215.991 64.0235 216.081 64.0872 216.212C64.151 216.343 64.1586 216.485 64.1102 216.639C64.064 216.785 63.9757 216.899 63.8452 216.98C63.7159 217.057 63.5576 217.072 63.3704 217.024C63.1867 216.976 63.0624 216.889 62.9976 216.761C62.9338 216.63 62.9251 216.491 62.9713 216.344ZM67.2298 223.643L68.5721 219.381L69.5394 219.63L67.7937 225.174L66.8733 224.936L67.2298 223.643ZM67.7796 222.522L68.1833 222.615C68.0671 222.984 67.9197 223.315 67.741 223.609C67.5669 223.9 67.3571 224.138 67.1117 224.322C66.8663 224.506 66.5827 224.626 66.261 224.684C65.9404 224.737 65.579 224.712 65.1768 224.609C64.9029 224.538 64.664 224.434 64.4599 224.296C64.2593 224.159 64.1033 223.988 63.992 223.782C63.8806 223.576 63.8213 223.33 63.814 223.043C63.8101 222.758 63.8663 222.431 63.9824 222.062L65.1086 218.486L66.0706 218.735L64.9413 222.321C64.8628 222.57 64.8255 222.784 64.8293 222.962C64.8377 223.138 64.8754 223.286 64.9423 223.407C65.0138 223.525 65.1043 223.619 65.2139 223.688C65.3268 223.757 65.4492 223.809 65.5809 223.843C65.99 223.949 66.3384 223.956 66.626 223.864C66.9147 223.769 67.1525 223.603 67.3393 223.367C67.5307 223.128 67.6775 222.846 67.7796 222.522ZM72.9996 224.928C73.0426 224.792 73.0512 224.657 73.0254 224.525C73.0041 224.39 72.9149 224.251 72.7578 224.107C72.6052 223.96 72.3548 223.803 72.0064 223.636C71.7148 223.49 71.4564 223.34 71.2313 223.186C71.0096 223.033 70.8303 222.87 70.6933 222.698C70.5597 222.527 70.473 222.344 70.4332 222.149C70.3934 221.954 70.4095 221.742 70.4815 221.514C70.5504 221.295 70.664 221.101 70.8224 220.931C70.9842 220.763 71.179 220.626 71.4066 220.523C71.6376 220.42 71.8949 220.359 72.1783 220.34C72.4618 220.321 72.7613 220.352 73.0768 220.433C73.5275 220.55 73.8876 220.728 74.157 220.967C74.4265 221.206 74.6048 221.48 74.6919 221.786C74.78 222.09 74.7741 222.4 74.674 222.718L73.712 222.47C73.7604 222.316 73.7603 222.155 73.7119 221.988C73.668 221.818 73.5727 221.662 73.426 221.521C73.2828 221.38 73.0846 221.277 72.8315 221.212C72.5646 221.143 72.335 221.128 72.1427 221.167C71.9551 221.203 71.8037 221.273 71.6887 221.377C71.5772 221.481 71.4999 221.601 71.4569 221.738C71.4246 221.84 71.4129 221.937 71.4218 222.028C71.4352 222.116 71.4779 222.207 71.55 222.299C71.6232 222.388 71.7356 222.484 71.8872 222.586C72.0388 222.688 72.2372 222.802 72.4824 222.928C72.9112 223.149 73.2522 223.37 73.5051 223.591C73.7581 223.811 73.9246 224.044 74.0046 224.29C74.0846 224.536 74.0779 224.808 73.9843 225.105C73.9079 225.347 73.786 225.556 73.6185 225.731C73.4545 225.906 73.2523 226.042 73.0119 226.139C72.7761 226.233 72.5118 226.287 72.219 226.3C71.9308 226.31 71.622 226.273 71.2926 226.188C70.7968 226.06 70.4047 225.865 70.1164 225.602C69.828 225.339 69.6389 225.046 69.5493 224.724C69.4596 224.402 69.4631 224.087 69.5599 223.779L70.5272 224.029C70.4593 224.292 70.4705 224.519 70.5608 224.708C70.6522 224.894 70.7882 225.046 70.9688 225.163C71.1505 225.276 71.3402 225.358 71.5378 225.409C71.8013 225.477 72.0322 225.5 72.2306 225.477C72.4323 225.456 72.5989 225.397 72.7301 225.302C72.8614 225.206 72.9512 225.082 72.9996 224.928ZM78.8638 222.038L78.6347 222.766L75.5925 221.98L75.8215 221.253L78.8638 222.038ZM77.2755 220.171L78.2376 220.42L76.5001 225.937C76.4409 226.125 76.4258 226.275 76.4546 226.385C76.4834 226.496 76.5398 226.579 76.6237 226.634C76.7076 226.689 76.8033 226.73 76.9108 226.758C76.9906 226.779 77.0759 226.793 77.1669 226.802C77.2624 226.808 77.3343 226.812 77.3826 226.813L77.1442 227.588C77.0604 227.593 76.9529 227.589 76.8216 227.577C76.6927 227.57 76.5416 227.544 76.3683 227.499C76.1325 227.438 75.9303 227.336 75.7618 227.193C75.5932 227.049 75.4838 226.855 75.4337 226.609C75.3881 226.361 75.4234 226.053 75.5396 225.684L77.2755 220.171ZM84.5049 228.464L85.4035 225.611C85.4724 225.392 85.487 225.191 85.4474 225.007C85.4124 224.821 85.3204 224.661 85.1716 224.526C85.0227 224.392 84.8183 224.291 84.5583 224.224C84.3156 224.161 84.0894 224.147 83.8799 224.181C83.6738 224.217 83.4978 224.288 83.3518 224.394C83.2093 224.501 83.1139 224.632 83.0655 224.785L82.1034 224.537C82.1658 224.339 82.2796 224.156 82.4449 223.988C82.6102 223.82 82.8147 223.683 83.0583 223.576C83.3065 223.466 83.5821 223.401 83.885 223.379C84.1925 223.355 84.5161 223.387 84.8558 223.475C85.2649 223.581 85.604 223.742 85.873 223.959C86.1455 224.177 86.3266 224.448 86.4163 224.77C86.5105 225.09 86.4926 225.456 86.3624 225.87L85.5493 228.452C85.4912 228.636 85.445 228.836 85.4106 229.053C85.3796 229.27 85.3734 229.462 85.392 229.63L85.3662 229.712L84.3625 229.452C84.3484 229.331 84.3559 229.176 84.3852 228.987C84.4155 228.796 84.4554 228.621 84.5049 228.464ZM85.4312 226.094L85.2319 226.763L84.2594 226.512C83.9855 226.441 83.7341 226.4 83.5052 226.389C83.2773 226.375 83.0771 226.391 82.9046 226.439C82.7321 226.487 82.5873 226.566 82.4701 226.676C82.3541 226.783 82.2691 226.921 82.2154 227.092C82.1605 227.266 82.1504 227.435 82.1849 227.599C82.2195 227.763 82.3031 227.909 82.4357 228.035C82.5728 228.159 82.7593 228.252 82.995 228.313C83.2897 228.389 83.5691 228.394 83.8332 228.33C84.0972 228.265 84.3231 228.161 84.5108 228.017C84.7019 227.874 84.8291 227.721 84.8922 227.556L85.1594 228.118C85.09 228.255 84.9741 228.397 84.8118 228.544C84.6494 228.69 84.4528 228.82 84.222 228.934C83.9957 229.046 83.7428 229.123 83.4633 229.165C83.1884 229.205 82.8983 229.185 82.5932 229.106C82.2119 229.008 81.9004 228.848 81.6589 228.627C81.4209 228.407 81.2608 228.153 81.1788 227.866C81.1013 227.576 81.1109 227.278 81.2077 226.97C81.3013 226.673 81.4425 226.427 81.6314 226.232C81.8213 226.034 82.0509 225.888 82.3201 225.795C82.5904 225.699 82.8939 225.651 83.2307 225.654C83.5675 225.656 83.9283 225.706 84.3131 225.806L85.4312 226.094ZM91.7885 230.639C92.0173 230.698 92.2433 230.707 92.4665 230.664C92.6897 230.622 92.889 230.537 93.0643 230.409C93.2408 230.277 93.3705 230.109 93.4534 229.906L94.3687 230.142C94.2481 230.465 94.0392 230.742 93.7419 230.972C93.4491 231.199 93.1089 231.357 92.7212 231.445C92.3346 231.53 91.942 231.521 91.5433 231.418C91.1203 231.308 90.7742 231.14 90.5049 230.911C90.2392 230.684 90.0426 230.415 89.9152 230.105C89.7914 229.796 89.7296 229.463 89.7299 229.105C89.7348 228.744 89.7958 228.377 89.913 228.005L89.9808 227.79C90.098 227.418 90.2591 227.079 90.464 226.774C90.6734 226.466 90.9207 226.21 91.2059 226.007C91.4946 225.804 91.8181 225.67 92.1764 225.604C92.5381 225.538 92.9305 225.56 93.3534 225.67C93.7937 225.783 94.1506 225.971 94.424 226.234C94.6986 226.493 94.8816 226.799 94.973 227.151C95.0691 227.501 95.0655 227.87 94.9624 228.257L94.0471 228.02C94.1019 227.787 94.1011 227.563 94.0447 227.349C93.9919 227.136 93.8856 226.95 93.7258 226.791C93.5706 226.629 93.3648 226.515 93.1082 226.448C92.8135 226.372 92.5473 226.366 92.3097 226.43C92.0766 226.492 91.8704 226.605 91.6912 226.769C91.5166 226.931 91.3662 227.123 91.2399 227.345C91.1183 227.565 91.0193 227.796 90.9429 228.038L90.8751 228.254C90.7988 228.496 90.7477 228.741 90.7221 228.99C90.6964 229.238 90.7106 229.472 90.7648 229.693C90.8225 229.915 90.9318 230.109 91.0929 230.276C91.2585 230.441 91.4903 230.562 91.7885 230.639ZM95.4973 229.397L95.5344 229.28C95.6602 228.88 95.8359 228.525 96.0613 228.214C96.2878 227.899 96.5518 227.644 96.8533 227.449C97.1558 227.25 97.4869 227.121 97.8465 227.063C98.2072 227.001 98.5834 227.02 98.9752 227.121C99.3704 227.223 99.7032 227.387 99.9735 227.612C100.248 227.834 100.456 228.102 100.598 228.416C100.743 228.727 100.821 229.07 100.83 229.445C100.84 229.817 100.783 230.203 100.657 230.602L100.62 230.72C100.494 231.12 100.318 231.475 100.093 231.786C99.8674 232.097 99.6017 232.352 99.2957 232.55C98.9942 232.745 98.6631 232.874 98.3024 232.936C97.9463 232.995 97.5706 232.974 97.1754 232.872C96.7802 232.77 96.4468 232.608 96.1754 232.387C95.9051 232.162 95.6971 231.894 95.5513 231.583C95.4101 231.269 95.3343 230.927 95.324 230.555C95.3137 230.183 95.3714 229.797 95.4973 229.397ZM96.4965 229.528L96.4594 229.646C96.3722 229.923 96.3229 230.192 96.3113 230.455C96.3008 230.715 96.3319 230.955 96.4045 231.177C96.4805 231.4 96.6019 231.592 96.7686 231.753C96.9363 231.911 97.1537 232.024 97.4206 232.093C97.6841 232.161 97.9313 232.168 98.1623 232.113C98.3978 232.056 98.611 231.95 98.8019 231.796C98.9928 231.643 99.1594 231.453 99.3016 231.227C99.4484 230.999 99.5653 230.747 99.6525 230.47L99.6896 230.353C99.7756 230.079 99.8221 229.813 99.8292 229.552C99.8407 229.289 99.8085 229.046 99.7324 228.824C99.6609 228.598 99.5418 228.405 99.3752 228.244C99.212 228.084 98.9969 227.969 98.7299 227.9C98.4664 227.832 98.2169 227.827 97.9814 227.884C97.7494 227.942 97.5357 228.05 97.3402 228.206C97.1493 228.36 96.9822 228.551 96.8389 228.78C96.6967 229.005 96.5825 229.255 96.4965 229.528ZM101.571 230.966L101.609 230.848C101.734 230.449 101.91 230.093 102.135 229.782C102.362 229.468 102.626 229.213 102.927 229.017C103.23 228.818 103.561 228.69 103.921 228.631C104.281 228.569 104.658 228.589 105.049 228.69C105.445 228.792 105.777 228.956 106.048 229.18C106.323 229.403 106.531 229.671 106.672 229.984C106.818 230.295 106.895 230.638 106.904 231.014C106.915 231.386 106.857 231.771 106.731 232.171L106.694 232.289C106.568 232.689 106.392 233.044 106.167 233.355C105.942 233.666 105.676 233.921 105.37 234.119C105.068 234.314 104.737 234.443 104.377 234.505C104.02 234.564 103.645 234.543 103.25 234.441C102.854 234.339 102.521 234.177 102.25 233.955C101.979 233.73 101.771 233.463 101.625 233.152C101.484 232.838 101.408 232.495 101.398 232.123C101.388 231.751 101.446 231.366 101.571 230.966ZM102.571 231.097L102.534 231.215C102.446 231.491 102.397 231.761 102.385 232.024C102.375 232.283 102.406 232.524 102.479 232.746C102.555 232.969 102.676 233.161 102.843 233.322C103.01 233.48 103.228 233.593 103.495 233.662C103.758 233.73 104.005 233.737 104.236 233.682C104.472 233.624 104.685 233.519 104.876 233.365C105.067 233.211 105.234 233.022 105.376 232.796C105.523 232.568 105.64 232.316 105.727 232.039L105.764 231.921C105.85 231.648 105.896 231.381 105.903 231.121C105.915 230.858 105.883 230.615 105.807 230.392C105.735 230.167 105.616 229.974 105.449 229.813C105.286 229.652 105.071 229.538 104.804 229.469C104.541 229.401 104.291 229.395 104.056 229.453C103.824 229.511 103.61 229.618 103.414 229.775C103.223 229.928 103.056 230.12 102.913 230.349C102.771 230.574 102.657 230.823 102.571 231.097ZM110.492 227.691L108.014 235.56L107.047 235.311L109.525 227.442L110.492 227.691ZM113.197 230.905L109.928 232.858L108.113 233.907L108.353 232.878L109.7 231.974L112.022 230.601L113.197 230.905ZM110.573 236.221L109.398 233.059L110.163 232.343L111.707 236.514L110.573 236.221ZM115.236 231.431L113.49 236.975L112.523 236.725L114.269 231.182L115.236 231.431ZM114.659 229.692C114.707 229.539 114.795 229.421 114.922 229.339C115.052 229.259 115.211 229.242 115.398 229.291C115.582 229.338 115.706 229.427 115.77 229.558C115.837 229.69 115.846 229.833 115.798 229.987C115.752 230.133 115.662 230.247 115.528 230.327C115.398 230.404 115.242 230.419 115.058 230.372C114.871 230.323 114.745 230.235 114.68 230.108C114.62 229.978 114.613 229.839 114.659 229.692ZM117.338 238.079C116.946 237.978 116.611 237.821 116.333 237.609C116.059 237.394 115.846 237.138 115.692 236.84C115.542 236.542 115.458 236.214 115.44 235.855C115.422 235.496 115.474 235.121 115.597 234.732L115.665 234.517C115.807 234.066 116.001 233.682 116.247 233.365C116.494 233.045 116.772 232.792 117.082 232.606C117.391 232.42 117.714 232.302 118.048 232.252C118.383 232.202 118.708 232.217 119.023 232.299C119.425 232.402 119.75 232.56 119.999 232.772C120.25 232.985 120.431 233.238 120.541 233.533C120.652 233.823 120.7 234.146 120.686 234.501C120.673 234.852 120.605 235.222 120.482 235.611L120.348 236.037L116.146 234.952L116.39 234.178L119.63 235.015L119.652 234.943C119.716 234.693 119.739 234.441 119.722 234.185C119.709 233.931 119.63 233.704 119.487 233.504C119.344 233.305 119.107 233.162 118.778 233.077C118.559 233.021 118.344 233.015 118.131 233.06C117.919 233.101 117.72 233.194 117.532 233.337C117.344 233.481 117.174 233.671 117.02 233.909C116.867 234.146 116.737 234.432 116.632 234.767L116.564 234.982C116.481 235.245 116.44 235.502 116.439 235.753C116.444 236.001 116.489 236.231 116.577 236.442C116.667 236.654 116.799 236.836 116.973 236.988C117.15 237.14 117.37 237.251 117.633 237.319C117.973 237.406 118.282 237.412 118.561 237.337C118.84 237.261 119.104 237.132 119.353 236.948L119.791 237.555C119.613 237.704 119.404 237.837 119.166 237.953C118.927 238.068 118.654 238.142 118.348 238.174C118.045 238.206 117.709 238.175 117.338 238.079ZM121.911 237.93L121.671 238.694C121.573 239.005 121.39 239.312 121.122 239.616C120.853 239.923 120.538 240.155 120.177 240.313L119.748 239.798C119.907 239.677 120.049 239.547 120.174 239.41C120.299 239.276 120.407 239.13 120.498 238.973C120.591 238.819 120.667 238.651 120.725 238.466L120.97 237.687L121.911 237.93ZM129.042 239.966L129.94 237.112C130.009 236.894 130.024 236.692 129.984 236.509C129.949 236.322 129.857 236.162 129.708 236.028C129.56 235.893 129.355 235.792 129.095 235.725C128.852 235.662 128.626 235.648 128.417 235.683C128.211 235.718 128.035 235.789 127.889 235.895C127.746 236.003 127.651 236.133 127.602 236.287L126.64 236.038C126.703 235.84 126.817 235.657 126.982 235.49C127.147 235.322 127.352 235.184 127.595 235.077C127.843 234.968 128.119 234.902 128.422 234.881C128.729 234.857 129.053 234.889 129.393 234.977C129.802 235.082 130.141 235.244 130.41 235.461C130.682 235.679 130.863 235.949 130.953 236.271C131.047 236.591 131.029 236.958 130.899 237.371L130.086 239.953C130.028 240.137 129.982 240.338 129.947 240.554C129.917 240.772 129.91 240.964 129.929 241.131L129.903 241.213L128.899 240.954C128.885 240.832 128.893 240.677 128.922 240.489C128.952 240.297 128.992 240.123 129.042 239.966ZM129.968 237.596L129.769 238.265L128.796 238.013C128.522 237.943 128.271 237.902 128.042 237.891C127.814 237.876 127.614 237.893 127.442 237.94C127.269 237.988 127.124 238.067 127.007 238.177C126.891 238.284 126.806 238.423 126.752 238.593C126.697 238.768 126.687 238.937 126.722 239.101C126.756 239.265 126.84 239.41 126.973 239.537C127.11 239.661 127.296 239.753 127.532 239.814C127.827 239.89 128.106 239.896 128.37 239.831C128.634 239.766 128.86 239.662 129.048 239.519C129.239 239.376 129.366 239.222 129.429 239.058L129.696 239.62C129.627 239.757 129.511 239.899 129.349 240.045C129.186 240.191 128.99 240.322 128.759 240.436C128.533 240.547 128.28 240.624 128 240.666C127.725 240.706 127.435 240.687 127.13 240.608C126.749 240.509 126.437 240.349 126.196 240.128C125.958 239.908 125.798 239.654 125.716 239.367C125.638 239.078 125.648 238.779 125.745 238.472C125.838 238.175 125.979 237.929 126.168 237.734C126.358 237.535 126.588 237.389 126.857 237.297C127.127 237.2 127.431 237.153 127.768 237.155C128.104 237.157 128.465 237.208 128.85 237.307L129.968 237.596ZM60.67 235.152C60.713 235.016 60.7216 234.881 60.6958 234.749C60.6745 234.614 60.5853 234.475 60.4282 234.331C60.2756 234.184 60.0251 234.027 59.6768 233.86C59.3852 233.714 59.1268 233.564 58.9017 233.41C58.68 233.257 58.5007 233.094 58.3637 232.922C58.2301 232.751 58.1434 232.568 58.1036 232.373C58.0637 232.178 58.0799 231.966 58.1519 231.738C58.2208 231.519 58.3344 231.325 58.4927 231.155C58.6546 230.987 58.8493 230.85 59.0769 230.747C59.308 230.644 59.5653 230.583 59.8487 230.564C60.1322 230.545 60.4316 230.576 60.7471 230.657C61.1978 230.774 61.5579 230.952 61.8274 231.191C62.0969 231.43 62.2752 231.704 62.3622 232.011C62.4504 232.314 62.4444 232.624 62.3444 232.942L61.3823 232.694C61.4307 232.54 61.4307 232.379 61.3823 232.212C61.3384 232.042 61.2431 231.886 61.0964 231.745C60.9532 231.604 60.755 231.501 60.5019 231.436C60.2349 231.367 60.0054 231.352 59.8131 231.391C59.6254 231.427 59.4741 231.497 59.3591 231.601C59.2476 231.705 59.1703 231.825 59.1273 231.962C59.095 232.064 59.0833 232.161 59.0922 232.252C59.1056 232.34 59.1483 232.431 59.2204 232.523C59.2936 232.612 59.406 232.708 59.5576 232.81C59.7092 232.912 59.9076 233.026 60.1528 233.152C60.5816 233.373 60.9225 233.594 61.1755 233.815C61.4285 234.035 61.595 234.268 61.675 234.514C61.755 234.76 61.7482 235.032 61.6547 235.329C61.5783 235.571 61.4564 235.78 61.2889 235.955C61.1249 236.13 60.9227 236.266 60.6823 236.363C60.4464 236.457 60.1821 236.511 59.8894 236.524C59.6011 236.534 59.2923 236.497 58.963 236.412C58.4672 236.284 58.0751 236.089 57.7867 235.826C57.4984 235.563 57.3093 235.27 57.2196 234.948C57.1299 234.626 57.1335 234.311 57.2303 234.003L58.1976 234.253C58.1297 234.516 58.1409 234.743 58.2312 234.932C58.3225 235.118 58.4585 235.27 58.6392 235.387C58.8209 235.5 59.0106 235.582 59.2082 235.633C59.4717 235.701 59.7026 235.724 59.9009 235.701C60.1027 235.68 60.2692 235.621 60.4005 235.526C60.5318 235.43 60.6216 235.306 60.67 235.152ZM64.7678 233.086L63.3948 237.446L62.4328 237.197L64.1784 231.654L65.0885 231.889L64.7678 233.086ZM64.105 234.405L63.7094 234.286C63.8322 233.908 63.9997 233.573 64.2117 233.28C64.4249 232.985 64.6696 232.743 64.946 232.556C65.2224 232.369 65.5197 232.246 65.8379 232.188C66.1607 232.127 66.4919 232.141 66.8317 232.229C67.109 232.3 67.3468 232.402 67.5451 232.535C67.7444 232.664 67.8967 232.829 68.0022 233.029C68.1111 233.231 68.1669 233.471 68.1694 233.748C68.173 234.023 68.1173 234.342 68.0022 234.708L66.8584 238.34L65.8911 238.09L67.0382 234.448C67.1296 234.158 67.1594 233.914 67.1276 233.718C67.0968 233.518 67.0106 233.357 66.8689 233.235C66.7283 233.11 66.5367 233.017 66.294 232.954C66.0548 232.892 65.8207 232.885 65.5919 232.933C65.3666 232.982 65.1554 233.075 64.9584 233.213C64.7649 233.351 64.5928 233.523 64.442 233.728C64.2958 233.93 64.1835 234.156 64.105 234.405ZM71.9361 238.627L72.8347 235.773C72.9035 235.554 72.9182 235.353 72.8786 235.169C72.8435 234.983 72.7516 234.823 72.6027 234.688C72.4539 234.554 72.2494 234.453 71.9894 234.386C71.7467 234.323 71.5206 234.309 71.311 234.344C71.1049 234.379 70.9289 234.45 70.7829 234.556C70.6405 234.664 70.545 234.794 70.4966 234.948L69.5345 234.699C69.5969 234.501 69.7108 234.318 69.8761 234.15C70.0414 233.983 70.2459 233.845 70.4895 233.738C70.7377 233.629 71.0132 233.563 71.3161 233.542C71.6236 233.518 71.9472 233.55 72.287 233.637C72.6961 233.743 73.0352 233.904 73.3042 234.122C73.5766 234.34 73.7577 234.61 73.8474 234.932C73.9417 235.252 73.9237 235.619 73.7936 236.032L72.9804 238.614C72.9224 238.798 72.8761 238.999 72.8417 239.215C72.8108 239.432 72.8046 239.625 72.8231 239.792L72.7973 239.874L71.7936 239.615C71.7795 239.493 71.7871 239.338 71.8163 239.15C71.8467 238.958 71.8866 238.784 71.9361 238.627ZM72.8624 236.257L72.663 236.925L71.6905 236.674C71.4167 236.603 71.1652 236.563 70.9363 236.551C70.7084 236.537 70.5083 236.554 70.3358 236.601C70.1633 236.649 70.0184 236.728 69.9013 236.838C69.7852 236.945 69.7003 237.083 69.6465 237.254C69.5917 237.428 69.5815 237.598 69.6161 237.762C69.6507 237.926 69.7342 238.071 69.8668 238.197C70.004 238.322 70.1904 238.414 70.4262 238.475C70.7209 238.551 71.0002 238.557 71.2643 238.492C71.5284 238.427 71.7543 238.323 71.9419 238.179C72.1331 238.037 72.2602 237.883 72.3233 237.718L72.5906 238.28C72.5211 238.418 72.4052 238.559 72.2429 238.706C72.0806 238.852 71.884 238.982 71.6532 239.096C71.4269 239.208 71.174 239.285 70.8945 239.327C70.6195 239.367 70.3295 239.347 70.0244 239.269C69.643 239.17 69.3316 239.01 69.0901 238.789C68.852 238.569 68.692 238.315 68.6099 238.028C68.5324 237.738 68.5421 237.44 68.6389 237.133C68.7325 236.835 68.8737 236.589 69.0626 236.394C69.2525 236.196 69.4821 236.05 69.7513 235.957C70.0216 235.861 70.3251 235.814 70.6619 235.816C70.9986 235.818 71.3594 235.868 71.7443 235.968L72.8624 236.257ZM76.5778 240.119C76.8066 240.178 77.0326 240.187 77.2558 240.144C77.479 240.102 77.6783 240.017 77.8537 239.889C78.0301 239.757 78.1598 239.589 78.2427 239.386L79.158 239.622C79.0374 239.945 78.8285 240.222 78.5312 240.452C78.2384 240.679 77.8982 240.837 77.5105 240.925C77.1239 241.01 76.7313 241.001 76.3326 240.898C75.9096 240.788 75.5635 240.62 75.2943 240.391C75.0285 240.164 74.8319 239.895 74.7046 239.585C74.5807 239.276 74.5189 238.943 74.5192 238.585C74.5241 238.224 74.5851 237.857 74.7023 237.485L74.7701 237.27C74.8873 236.898 75.0484 236.559 75.2533 236.254C75.4627 235.946 75.71 235.69 75.9952 235.487C76.2839 235.284 76.6074 235.15 76.9657 235.084C77.3274 235.018 77.7198 235.04 78.1427 235.15C78.583 235.263 78.9399 235.451 79.2134 235.714C79.4879 235.973 79.6709 236.279 79.7624 236.631C79.8584 236.981 79.8548 237.35 79.7517 237.737L78.8364 237.5C78.8912 237.267 78.8904 237.043 78.834 236.829C78.7812 236.616 78.6749 236.43 78.5151 236.271C78.3599 236.109 78.1541 235.995 77.8975 235.928C77.6028 235.852 77.3366 235.846 77.099 235.91C76.8659 235.972 76.6597 236.085 76.4805 236.249C76.3059 236.411 76.1555 236.603 76.0293 236.825C75.9076 237.045 75.8086 237.276 75.7322 237.518L75.6644 237.734C75.5881 237.976 75.5371 238.221 75.5114 238.47C75.4857 238.718 75.5 238.952 75.5541 239.173C75.6118 239.395 75.7211 239.589 75.8822 239.756C76.0478 239.921 76.2796 240.042 76.5778 240.119ZM83.1333 234.034L80.6552 241.903L79.688 241.653L82.166 233.784L83.1333 234.034ZM85.8384 237.248L82.569 239.201L80.754 240.25L80.9939 239.221L82.3414 238.317L84.6631 236.944L85.8384 237.248ZM83.2139 242.564L82.039 239.402L82.8044 238.686L84.3476 242.857L83.2139 242.564ZM89.4626 243.114L92.3442 238.928L92.9786 239.092L92.5683 239.966L89.6365 244.222L89.0176 244.063L89.4626 243.114ZM89.926 238.303L89.7065 243.232L89.5013 244.188L88.8512 244.02L88.9639 238.055L89.926 238.303ZM92.9213 244.024L95.5373 239.752L96.4942 240L93.1156 245.121L92.4707 244.954L92.9213 244.024ZM93.1191 239.128L93.1219 243.976L92.9492 245.078L92.3355 244.92L92.2855 239.882L92.443 238.953L93.1191 239.128ZM99.1768 238.177L96.6987 246.046L95.7366 245.798L98.2147 237.929L99.1768 238.177ZM97.4089 243.006L97.0133 242.887C97.1361 242.509 97.3036 242.173 97.5156 241.881C97.7287 241.585 97.9735 241.344 98.2499 241.156C98.5262 240.969 98.8235 240.847 99.1418 240.788C99.4645 240.728 99.7958 240.741 100.136 240.829C100.413 240.901 100.651 241.003 100.849 241.135C101.048 241.264 101.201 241.429 101.306 241.63C101.415 241.832 101.471 242.071 101.473 242.349C101.477 242.623 101.421 242.943 101.306 243.308L100.162 246.941L99.195 246.691L100.342 243.048C100.433 242.758 100.463 242.515 100.431 242.318C100.401 242.118 100.314 241.957 100.173 241.836C100.032 241.711 99.8406 241.617 99.5979 241.554C99.3586 241.493 99.1246 241.486 98.8958 241.534C98.6705 241.583 98.4593 241.676 98.2623 241.813C98.0688 241.952 97.8966 242.123 97.7459 242.328C97.5997 242.53 97.4874 242.756 97.4089 243.006ZM104.394 242.04L102.648 247.583L101.681 247.333L103.426 241.79L104.394 242.04ZM103.817 240.301C103.865 240.147 103.953 240.029 104.08 239.948C104.21 239.867 104.369 239.85 104.556 239.899C104.74 239.946 104.864 240.035 104.927 240.166C104.995 240.298 105.004 240.441 104.956 240.595C104.909 240.742 104.819 240.855 104.685 240.935C104.556 241.012 104.399 241.027 104.216 240.98C104.028 240.931 103.902 240.844 103.838 240.716C103.777 240.586 103.77 240.447 103.817 240.301ZM107.716 240.382L105.238 248.251L104.271 248.002L106.749 240.133L107.716 240.382ZM109.085 249.356C108.693 249.255 108.359 249.098 108.08 248.886C107.807 248.671 107.593 248.415 107.44 248.117C107.29 247.819 107.206 247.491 107.188 247.132C107.169 246.773 107.222 246.398 107.344 246.009L107.412 245.794C107.554 245.343 107.748 244.959 107.994 244.642C108.241 244.322 108.52 244.069 108.829 243.883C109.139 243.697 109.461 243.579 109.796 243.529C110.13 243.478 110.455 243.494 110.771 243.576C111.173 243.679 111.498 243.837 111.746 244.049C111.998 244.262 112.179 244.515 112.288 244.81C112.399 245.1 112.447 245.423 112.433 245.778C112.42 246.129 112.352 246.499 112.23 246.888L112.096 247.314L107.894 246.228L108.137 245.455L111.377 246.292L111.4 246.22C111.463 245.97 111.487 245.718 111.47 245.462C111.456 245.208 111.378 244.981 111.234 244.781C111.091 244.582 110.855 244.439 110.525 244.354C110.307 244.298 110.091 244.292 109.879 244.337C109.667 244.378 109.467 244.471 109.279 244.614C109.092 244.758 108.921 244.948 108.768 245.186C108.614 245.423 108.485 245.709 108.379 246.044L108.312 246.259C108.229 246.522 108.187 246.779 108.187 247.03C108.191 247.278 108.237 247.508 108.324 247.719C108.415 247.931 108.547 248.113 108.72 248.264C108.897 248.417 109.117 248.528 109.381 248.596C109.721 248.683 110.03 248.689 110.309 248.614C110.587 248.538 110.851 248.409 111.1 248.225L111.539 248.832C111.361 248.981 111.152 249.114 110.913 249.23C110.674 249.345 110.402 249.419 110.096 249.451C109.793 249.483 109.456 249.452 109.085 249.356ZM116.834 250.626L119.964 246.06L120.994 246.326L116.722 252.142C116.627 252.265 116.511 252.394 116.375 252.529C116.241 252.668 116.086 252.792 115.909 252.902C115.732 253.011 115.536 253.086 115.321 253.127C115.108 253.171 114.873 253.161 114.617 253.094C114.54 253.075 114.447 253.039 114.335 252.988C114.224 252.937 114.146 252.899 114.102 252.873L114.338 252.103C114.365 252.113 114.407 252.128 114.465 252.147C114.525 252.17 114.568 252.184 114.592 252.191C114.81 252.247 115.005 252.266 115.176 252.247C115.346 252.232 115.503 252.171 115.649 252.065C115.798 251.963 115.946 251.807 116.094 251.598L116.834 250.626ZM117.249 245.359L117.355 250.04L117.29 251.104L116.489 251.273L116.199 245.088L117.249 245.359ZM120.632 249.296L120.669 249.179C120.795 248.779 120.97 248.424 121.196 248.113C121.422 247.798 121.686 247.543 121.988 247.348C122.29 247.149 122.622 247.02 122.981 246.962C123.342 246.9 123.718 246.919 124.11 247.02C124.505 247.122 124.838 247.286 125.108 247.511C125.383 247.733 125.591 248.001 125.732 248.315C125.878 248.626 125.956 248.969 125.965 249.344C125.975 249.716 125.917 250.102 125.791 250.501L125.754 250.619C125.629 251.019 125.453 251.374 125.227 251.685C125.002 251.996 124.736 252.251 124.43 252.449C124.129 252.644 123.798 252.773 123.437 252.835C123.081 252.894 122.705 252.873 122.31 252.771C121.915 252.669 121.581 252.507 121.31 252.286C121.04 252.061 120.832 251.793 120.686 251.482C120.545 251.168 120.469 250.826 120.459 250.454C120.448 250.082 120.506 249.696 120.632 249.296ZM121.631 249.427L121.594 249.545C121.507 249.822 121.458 250.091 121.446 250.354C121.435 250.614 121.467 250.854 121.539 251.076C121.615 251.299 121.737 251.491 121.903 251.652C122.071 251.81 122.288 251.923 122.555 251.992C122.819 252.06 123.066 252.067 123.297 252.012C123.532 251.955 123.746 251.849 123.937 251.695C124.127 251.542 124.294 251.352 124.436 251.126C124.583 250.898 124.7 250.646 124.787 250.369L124.824 250.252C124.91 249.978 124.957 249.712 124.964 249.451C124.975 249.188 124.943 248.945 124.867 248.723C124.796 248.497 124.676 248.304 124.51 248.143C124.347 247.983 124.132 247.868 123.865 247.799C123.601 247.731 123.352 247.726 123.116 247.783C122.884 247.841 122.67 247.949 122.475 248.105C122.284 248.259 122.117 248.45 121.974 248.679C121.831 248.904 121.717 249.154 121.631 249.427ZM129.953 253.249L131.296 248.987L132.263 249.237L130.517 254.78L129.597 254.542L129.953 253.249ZM130.503 252.128L130.907 252.221C130.791 252.59 130.643 252.921 130.465 253.215C130.291 253.506 130.081 253.744 129.835 253.928C129.59 254.112 129.306 254.233 128.985 254.29C128.664 254.344 128.303 254.319 127.901 254.215C127.627 254.144 127.388 254.04 127.184 253.902C126.983 253.765 126.827 253.594 126.716 253.388C126.604 253.182 126.545 252.936 126.538 252.65C126.534 252.364 126.59 252.037 126.706 251.668L127.832 248.092L128.794 248.341L127.665 251.927C127.587 252.176 127.549 252.39 127.553 252.568C127.561 252.744 127.599 252.892 127.666 253.013C127.738 253.131 127.828 253.225 127.938 253.294C128.051 253.363 128.173 253.415 128.305 253.449C128.714 253.555 129.062 253.562 129.35 253.47C129.638 253.375 129.876 253.209 130.063 252.973C130.254 252.734 130.401 252.453 130.503 252.128ZM55.4906 248.081C55.7194 248.14 55.9454 248.149 56.1686 248.107C56.3918 248.065 56.5911 247.98 56.7664 247.851C56.9429 247.72 57.0725 247.552 57.1555 247.348L58.0708 247.584C57.9502 247.908 57.7412 248.184 57.444 248.414C57.1512 248.641 56.811 248.799 56.4233 248.887C56.0367 248.972 55.644 248.963 55.2453 248.86C54.8224 248.751 54.4763 248.582 54.207 248.354C53.9412 248.126 53.7447 247.858 53.6173 247.548C53.4934 247.239 53.4316 246.905 53.432 246.547C53.4368 246.186 53.4979 245.82 53.6151 245.448L53.6829 245.232C53.8001 244.86 53.9612 244.521 54.166 244.216C54.3754 243.908 54.6228 243.653 54.908 243.449C55.1967 243.247 55.5201 243.112 55.8784 243.046C56.2402 242.981 56.6325 243.003 57.0555 243.112C57.4958 243.226 57.8527 243.414 58.1261 243.677C58.4006 243.936 58.5836 244.242 58.6751 244.594C58.7712 244.944 58.7676 245.312 58.6645 245.699L57.7492 245.463C57.8039 245.229 57.8031 245.006 57.7468 244.792C57.6939 244.579 57.5876 244.392 57.4279 244.233C57.2727 244.071 57.0668 243.957 56.8103 243.891C56.5156 243.815 56.2494 243.809 56.0118 243.873C55.7786 243.934 55.5725 244.047 55.3933 244.212C55.2187 244.373 55.0682 244.565 54.942 244.788C54.8203 245.007 54.7213 245.238 54.645 245.481L54.5772 245.696C54.5008 245.939 54.4498 246.184 54.4241 246.432C54.3985 246.68 54.4127 246.915 54.4669 247.136C54.5245 247.357 54.6339 247.552 54.7949 247.719C54.9605 247.884 55.1924 248.004 55.4906 248.081ZM62.0409 241.995L59.5628 249.864L58.6007 249.616L61.0788 241.747L62.0409 241.995ZM60.2729 246.823L59.8773 246.705C60.0002 246.326 60.1676 245.991 60.3797 245.699C60.5928 245.403 60.8376 245.162 61.1139 244.974C61.3903 244.787 61.6876 244.665 62.0058 244.606C62.3286 244.546 62.6599 244.559 62.9997 244.647C63.277 244.719 63.5148 244.821 63.713 244.953C63.9123 245.082 64.0647 245.247 64.1702 245.448C64.2791 245.65 64.3348 245.889 64.3374 246.167C64.341 246.441 64.2853 246.761 64.1702 247.126L63.0263 250.759L62.059 250.509L63.2061 246.866C63.2975 246.576 63.3273 246.333 63.2955 246.136C63.2648 245.936 63.1786 245.775 63.0369 245.654C62.8963 245.529 62.7046 245.435 62.4619 245.372C62.2227 245.311 61.9887 245.304 61.7599 245.352C61.5346 245.401 61.3234 245.494 61.1264 245.631C60.9329 245.77 60.7607 245.941 60.61 246.146C60.4638 246.348 60.3515 246.574 60.2729 246.823ZM68.0832 251.04L68.9819 248.186C69.0507 247.968 69.0653 247.766 69.0257 247.583C68.9907 247.396 68.8987 247.236 68.7499 247.101C68.601 246.967 68.3966 246.866 68.1366 246.799C67.8939 246.736 67.6677 246.722 67.4582 246.757C67.2521 246.792 67.0761 246.863 66.9301 246.969C66.7876 247.077 66.6922 247.207 66.6438 247.361L65.6817 247.112C65.7441 246.914 65.8579 246.731 66.0232 246.563C66.1885 246.396 66.393 246.258 66.6366 246.151C66.8848 246.042 67.1604 245.976 67.4633 245.955C67.7708 245.931 68.0944 245.963 68.4342 246.05C68.8433 246.156 69.1823 246.318 69.4513 246.535C69.7238 246.753 69.9049 247.023 69.9946 247.345C70.0888 247.665 70.0709 248.032 69.9407 248.445L69.1276 251.027C69.0695 251.211 69.0233 251.412 68.9889 251.628C68.9579 251.845 68.9517 252.038 68.9703 252.205L68.9445 252.287L67.9408 252.028C67.9267 251.906 67.9342 251.751 67.9635 251.563C67.9938 251.371 68.0338 251.197 68.0832 251.04ZM69.0095 248.67L68.8102 249.338L67.8377 249.087C67.5638 249.017 67.3124 248.976 67.0835 248.965C66.8556 248.95 66.6554 248.967 66.4829 249.014C66.3104 249.062 66.1656 249.141 66.0485 249.251C65.9324 249.358 65.8475 249.497 65.7937 249.667C65.7388 249.842 65.7287 250.011 65.7633 250.175C65.7978 250.339 65.8814 250.484 66.014 250.611C66.1511 250.735 66.3376 250.827 66.5733 250.888C66.868 250.964 67.1474 250.97 67.4115 250.905C67.6756 250.84 67.9014 250.736 68.0891 250.593C68.2802 250.45 68.4074 250.296 68.4705 250.131L68.7377 250.694C68.6683 250.831 68.5524 250.973 68.3901 251.119C68.2277 251.265 68.0311 251.396 67.8003 251.51C67.574 251.621 67.3211 251.698 67.0416 251.74C66.7667 251.78 66.4766 251.76 66.1716 251.682C65.7902 251.583 65.4787 251.423 65.2372 251.202C64.9992 250.982 64.8391 250.728 64.7571 250.441C64.6796 250.152 64.6893 249.853 64.7861 249.546C64.8796 249.248 65.0208 249.002 65.2097 248.807C65.3997 248.609 65.6292 248.463 65.8984 248.37C66.1687 248.274 66.4723 248.227 66.809 248.229C67.1458 248.231 67.5066 248.282 67.8914 248.381L69.0095 248.67ZM72.5952 248.515L71.2223 252.875L70.2602 252.627L72.0058 247.084L72.9159 247.319L72.5952 248.515ZM71.9324 249.834L71.5368 249.716C71.6597 249.338 71.8271 249.002 72.0392 248.71C72.2523 248.414 72.497 248.173 72.7734 247.985C73.0498 247.798 73.3471 247.676 73.6653 247.617C73.9881 247.557 74.3194 247.57 74.6591 247.658C74.9365 247.73 75.1743 247.832 75.3725 247.964C75.5718 248.093 75.7242 248.258 75.8297 248.459C75.9386 248.661 75.9943 248.9 75.9969 249.178C76.0005 249.452 75.9447 249.772 75.8297 250.137L74.6858 253.77L73.7185 253.52L74.8656 249.877C74.957 249.587 74.9868 249.344 74.955 249.147C74.9242 248.947 74.838 248.786 74.6964 248.665C74.5558 248.54 74.3641 248.446 74.1214 248.383C73.8822 248.322 73.6482 248.315 73.4194 248.363C73.194 248.412 72.9829 248.505 72.7859 248.642C72.5923 248.781 72.4202 248.952 72.2695 249.157C72.1233 249.359 72.0109 249.585 71.9324 249.834ZM81.5383 249.545L82.412 249.771L80.7035 255.196C80.5497 255.685 80.3179 256.075 80.0082 256.368C79.6985 256.661 79.3354 256.85 78.9189 256.935C78.5048 257.023 78.0637 257.007 77.5956 256.887C77.4015 256.836 77.1824 256.747 76.9382 256.617C76.6965 256.492 76.4717 256.325 76.2637 256.116C76.0582 255.912 75.9082 255.668 75.8136 255.385L76.4955 254.952C76.643 255.293 76.8279 255.551 77.05 255.726C77.2756 255.903 77.515 256.024 77.7681 256.089C78.0732 256.168 78.3544 256.18 78.6118 256.124C78.8692 256.069 79.0935 255.946 79.2847 255.755C79.4784 255.569 79.6258 255.315 79.7269 254.994L81.0659 250.742L81.5383 249.545ZM76.7718 251.378L76.8057 251.27C76.939 250.847 77.1103 250.475 77.3195 250.157C77.5332 249.835 77.7746 249.574 78.0438 249.374C78.3165 249.175 78.6108 249.044 78.9266 248.982C79.2435 248.916 79.5736 248.927 79.9168 249.016C80.2704 249.107 80.5596 249.248 80.7844 249.439C81.0137 249.628 81.1837 249.862 81.2943 250.142C81.4095 250.419 81.4697 250.733 81.475 251.086C81.4803 251.438 81.4392 251.824 81.3517 252.245L81.2033 252.716C81.0372 253.113 80.8476 253.459 80.6344 253.755C80.4248 254.051 80.1903 254.29 79.931 254.471C79.6752 254.652 79.3945 254.77 79.0888 254.824C78.7842 254.874 78.4534 254.853 78.0963 254.761C77.76 254.674 77.4769 254.526 77.2471 254.315C77.0208 254.105 76.8503 253.849 76.7358 253.546C76.6212 253.243 76.5657 252.907 76.5693 252.539C76.5774 252.168 76.6449 251.781 76.7718 251.378ZM77.7677 251.519L77.7339 251.626C77.6467 251.903 77.5927 252.17 77.5718 252.426C77.5544 252.684 77.5756 252.92 77.6354 253.135C77.6987 253.351 77.8072 253.536 77.9611 253.69C78.1161 253.841 78.3235 253.95 78.5836 254.017C78.9025 254.1 79.187 254.101 79.437 254.022C79.6869 253.942 79.907 253.809 80.0972 253.622C80.2908 253.435 80.4627 253.223 80.6127 252.985L81.0015 251.75C81.0225 251.552 81.0206 251.356 80.9957 251.161C80.9753 250.964 80.9243 250.781 80.8425 250.612C80.7652 250.441 80.6494 250.291 80.4949 250.162C80.3404 250.034 80.1418 249.938 79.8992 249.875C79.6357 249.807 79.3914 249.803 79.1663 249.863C78.9457 249.921 78.7452 250.028 78.5647 250.184C78.3887 250.338 78.2326 250.531 78.0962 250.761C77.9643 250.99 77.8549 251.242 77.7677 251.519ZM84.9186 250.418L83.173 255.961L82.2057 255.712L83.9513 250.168L84.9186 250.418ZM84.3415 248.679C84.3899 248.526 84.4776 248.408 84.6046 248.326C84.735 248.245 84.8938 248.229 85.081 248.278C85.2648 248.325 85.3885 248.414 85.4522 248.545C85.5194 248.677 85.5288 248.82 85.4804 248.973C85.4342 249.12 85.3441 249.234 85.2102 249.314C85.0809 249.391 84.9244 249.406 84.7406 249.359C84.5534 249.31 84.4274 249.222 84.3626 249.095C84.3023 248.965 84.2953 248.826 84.3415 248.679ZM87.0526 252.249L85.6796 256.609L84.7175 256.36L86.4632 250.817L87.3732 251.052L87.0526 252.249ZM86.3898 253.568L85.9942 253.449C86.117 253.071 86.2845 252.736 86.4965 252.443C86.7096 252.148 86.9544 251.906 87.2308 251.719C87.5071 251.532 87.8044 251.409 88.1227 251.351C88.4454 251.29 88.7767 251.304 89.1165 251.392C89.3938 251.463 89.6316 251.565 89.8298 251.698C90.0291 251.827 90.1815 251.992 90.287 252.192C90.3959 252.394 90.4517 252.634 90.4542 252.911C90.4578 253.186 90.4021 253.505 90.287 253.871L89.1431 257.503L88.1759 257.253L89.3229 253.611C89.4144 253.321 89.4442 253.077 89.4123 252.881C89.3816 252.681 89.2954 252.52 89.1537 252.398C89.0131 252.273 88.8214 252.18 88.5788 252.117C88.3395 252.055 88.1055 252.048 87.8767 252.096C87.6514 252.145 87.4402 252.238 87.2432 252.376C87.0497 252.514 86.8775 252.686 86.7268 252.891C86.5806 253.093 86.4683 253.319 86.3898 253.568ZM95.9956 253.279L96.8693 253.504L95.1608 258.93C95.007 259.418 94.7752 259.809 94.4655 260.102C94.1558 260.395 93.7927 260.584 93.3762 260.668C92.9621 260.757 92.521 260.741 92.053 260.62C91.8588 260.57 91.6397 260.48 91.3956 260.351C91.1538 260.225 90.929 260.058 90.7211 259.85C90.5155 259.645 90.3655 259.401 90.2709 259.118L90.9528 258.685C91.1004 259.026 91.2852 259.284 91.5074 259.46C91.733 259.636 91.9723 259.757 92.2254 259.823C92.5305 259.901 92.8117 259.913 93.0691 259.858C93.3265 259.802 93.5508 259.679 93.7421 259.489C93.9357 259.302 94.0831 259.049 94.1842 258.727L95.5233 254.475L95.9956 253.279ZM91.2291 255.111L91.263 255.004C91.3964 254.58 91.5676 254.209 91.7768 253.89C91.9905 253.569 92.232 253.308 92.5012 253.108C92.7738 252.908 93.0681 252.778 93.3839 252.715C93.7008 252.649 94.0309 252.661 94.3742 252.749C94.7278 252.841 95.017 252.982 95.2418 253.173C95.4711 253.361 95.641 253.595 95.7516 253.875C95.8668 254.152 95.927 254.467 95.9323 254.819C95.9376 255.171 95.8965 255.558 95.8091 255.978L95.6607 256.45C95.4945 256.846 95.3049 257.192 95.0918 257.488C94.8821 257.785 94.6477 258.024 94.3884 258.204C94.1326 258.385 93.8518 258.503 93.5461 258.557C93.2415 258.608 92.9107 258.587 92.5536 258.495C92.2173 258.408 91.9343 258.259 91.7045 258.048C91.4781 257.838 91.3077 257.582 91.1931 257.279C91.0786 256.976 91.0231 256.641 91.0266 256.272C91.0347 255.901 91.1022 255.514 91.2291 255.111ZM92.2251 255.252L92.1912 255.36C92.1041 255.636 92.0501 255.903 92.0292 256.16C92.0118 256.418 92.0329 256.654 92.0927 256.869C92.156 257.085 92.2646 257.27 92.4184 257.424C92.5734 257.575 92.7809 257.684 93.0409 257.751C93.3599 257.833 93.6443 257.835 93.8943 257.755C94.1443 257.676 94.3643 257.542 94.5545 257.355C94.7482 257.169 94.92 256.956 95.07 256.718L95.4588 255.484C95.4798 255.286 95.4779 255.09 95.453 254.895C95.4327 254.698 95.3816 254.514 95.2998 254.346C95.2226 254.174 95.1067 254.024 94.9522 253.896C94.7978 253.767 94.5992 253.672 94.3565 253.609C94.093 253.541 93.8487 253.537 93.6236 253.597C93.403 253.654 93.2025 253.762 93.022 253.918C92.8461 254.072 92.6899 254.264 92.5535 254.495C92.4217 254.723 92.3122 254.976 92.2251 255.252ZM103.328 255.172L103.099 255.9L100.057 255.114L100.286 254.387L103.328 255.172ZM101.74 253.305L102.702 253.554L100.965 259.071C100.905 259.259 100.89 259.409 100.919 259.519C100.948 259.63 101.004 259.713 101.088 259.768C101.172 259.823 101.268 259.864 101.375 259.892C101.455 259.913 101.54 259.927 101.631 259.936C101.727 259.942 101.799 259.946 101.847 259.947L101.609 260.722C101.525 260.727 101.417 260.723 101.286 260.711C101.157 260.704 101.006 260.678 100.833 260.633C100.597 260.572 100.395 260.47 100.226 260.327C100.058 260.183 99.9483 259.989 99.8982 259.743C99.8526 259.495 99.8879 259.187 100.004 258.818L101.74 253.305ZM106.151 253.386L103.673 261.256L102.711 261.007L105.189 253.138L106.151 253.386ZM104.383 258.215L103.988 258.096C104.111 257.718 104.278 257.383 104.49 257.09C104.703 256.794 104.948 256.553 105.224 256.366C105.501 256.179 105.798 256.056 106.116 255.998C106.439 255.937 106.77 255.951 107.11 256.038C107.387 256.11 107.625 256.212 107.824 256.344C108.023 256.473 108.175 256.638 108.281 256.839C108.39 257.041 108.445 257.281 108.448 257.558C108.451 257.832 108.396 258.152 108.281 258.518L107.137 262.15L106.17 261.9L107.317 258.258C107.408 257.967 107.438 257.724 107.406 257.527C107.375 257.327 107.289 257.167 107.147 257.045C107.007 256.92 106.815 256.826 106.572 256.764C106.333 256.702 106.099 256.695 105.87 256.743C105.645 256.792 105.434 256.885 105.237 257.023C105.043 257.161 104.871 257.333 104.72 257.537C104.574 257.74 104.462 257.965 104.383 258.215ZM110.88 263.227C110.488 263.126 110.153 262.97 109.875 262.757C109.602 262.543 109.388 262.286 109.235 261.988C109.085 261.691 109.001 261.363 108.982 261.003C108.964 260.644 109.017 260.27 109.139 259.881L109.207 259.665C109.349 259.215 109.543 258.831 109.789 258.514C110.036 258.194 110.314 257.941 110.624 257.755C110.934 257.569 111.256 257.451 111.59 257.4C111.925 257.35 112.25 257.366 112.565 257.447C112.968 257.551 113.293 257.709 113.541 257.921C113.793 258.133 113.973 258.387 114.083 258.681C114.194 258.972 114.242 259.295 114.228 259.649C114.215 260 114.147 260.371 114.025 260.76L113.891 261.185L109.689 260.1L109.932 259.326L113.172 260.163L113.195 260.091C113.258 259.842 113.282 259.589 113.265 259.334C113.251 259.079 113.173 258.852 113.029 258.653C112.886 258.453 112.65 258.311 112.32 258.226C112.102 258.169 111.886 258.164 111.673 258.208C111.462 258.25 111.262 258.342 111.074 258.486C110.887 258.629 110.716 258.82 110.563 259.057C110.409 259.295 110.28 259.581 110.174 259.915L110.107 260.13C110.024 260.393 109.982 260.65 109.982 260.901C109.986 261.15 110.032 261.38 110.119 261.591C110.21 261.802 110.342 261.984 110.515 262.136C110.692 262.289 110.912 262.399 111.176 262.467C111.515 262.555 111.825 262.561 112.104 262.485C112.382 262.41 112.646 262.28 112.895 262.097L113.334 262.703C113.156 262.853 112.947 262.986 112.708 263.101C112.469 263.217 112.197 263.29 111.891 263.322C111.588 263.355 111.251 263.323 110.88 263.227ZM118.602 264.047L121.483 259.861L122.118 260.025L121.707 260.899L118.775 265.156L118.157 264.996L118.602 264.047ZM119.065 259.236L118.845 264.165L118.64 265.121L117.99 264.953L118.103 258.988L119.065 259.236ZM122.06 264.957L124.676 260.685L125.633 260.933L122.255 266.054L121.61 265.888L122.06 264.957ZM122.258 260.061L122.261 264.909L122.088 266.011L121.475 265.853L121.424 260.815L121.582 259.886L122.258 260.061ZM125.474 263.955L125.511 263.837C125.637 263.438 125.813 263.082 126.038 262.771C126.265 262.457 126.529 262.202 126.83 262.006C127.133 261.807 127.464 261.679 127.823 261.62C128.184 261.558 128.56 261.578 128.952 261.679C129.347 261.781 129.68 261.944 129.95 262.169C130.225 262.392 130.433 262.66 130.575 262.973C130.72 263.284 130.798 263.627 130.807 264.003C130.817 264.375 130.76 264.76 130.634 265.16L130.597 265.278C130.471 265.677 130.295 266.033 130.07 266.344C129.844 266.655 129.579 266.91 129.273 267.108C128.971 267.303 128.64 267.432 128.279 267.494C127.923 267.553 127.548 267.532 127.152 267.43C126.757 267.328 126.424 267.166 126.152 266.944C125.882 266.719 125.674 266.451 125.528 266.141C125.387 265.827 125.311 265.484 125.301 265.112C125.291 264.74 125.348 264.355 125.474 263.955ZM126.473 264.086L126.436 264.203C126.349 264.48 126.3 264.75 126.288 265.013C126.278 265.272 126.309 265.513 126.381 265.735C126.458 265.958 126.579 266.15 126.746 266.311C126.913 266.469 127.131 266.582 127.398 266.651C127.661 266.719 127.908 266.726 128.139 266.671C128.375 266.613 128.588 266.508 128.779 266.354C128.97 266.2 129.136 266.011 129.279 265.785C129.425 265.557 129.542 265.305 129.629 265.028L129.667 264.91C129.753 264.637 129.799 264.37 129.806 264.11C129.818 263.847 129.785 263.604 129.709 263.381C129.638 263.156 129.519 262.963 129.352 262.802C129.189 262.641 128.974 262.527 128.707 262.458C128.443 262.39 128.194 262.384 127.958 262.442C127.726 262.5 127.513 262.607 127.317 262.764C127.126 262.917 126.959 263.109 126.816 263.338C126.674 263.563 126.56 263.812 126.473 264.086ZM133.383 263.876L131.912 268.548L130.95 268.3L132.695 262.756L133.632 262.998L133.383 263.876ZM135.425 263.428L135.142 264.308C135.068 264.27 134.995 264.24 134.923 264.218C134.856 264.193 134.777 264.169 134.687 264.146C134.465 264.089 134.259 264.072 134.067 264.097C133.876 264.121 133.702 264.18 133.545 264.272C133.389 264.365 133.249 264.487 133.126 264.64C133.007 264.791 132.906 264.964 132.821 265.16L132.503 265.244C132.608 264.909 132.74 264.603 132.898 264.327C133.06 264.051 133.248 263.819 133.461 263.63C133.675 263.438 133.911 263.307 134.169 263.237C134.432 263.164 134.716 263.167 135.021 263.246C135.09 263.264 135.168 263.293 135.252 263.334C135.338 263.371 135.396 263.402 135.425 263.428ZM138.082 261.633L135.604 269.502L134.637 269.252L137.115 261.383L138.082 261.633ZM141.034 269.74L143.174 262.947L144.141 263.197L141.663 271.066L140.779 270.838L141.034 269.74ZM137.763 267.129L137.797 267.021C137.93 266.597 138.103 266.227 138.316 265.909C138.533 265.588 138.778 265.328 139.051 265.129C139.327 264.931 139.621 264.8 139.933 264.736C140.25 264.67 140.577 264.681 140.913 264.768C141.267 264.859 141.556 265 141.781 265.191C142.01 265.38 142.18 265.614 142.291 265.894C142.406 266.171 142.466 266.485 142.471 266.838C142.477 267.19 142.436 267.576 142.348 267.997L142.2 268.468C142.034 268.865 141.844 269.211 141.631 269.507C141.421 269.803 141.187 270.042 140.927 270.223C140.672 270.404 140.391 270.522 140.085 270.576C139.781 270.626 139.45 270.605 139.093 270.513C138.763 270.428 138.484 270.28 138.254 270.069C138.028 269.86 137.855 269.603 137.737 269.299C137.623 268.996 137.566 268.66 137.566 268.291C137.57 267.919 137.636 267.532 137.763 267.129ZM138.764 267.271L138.73 267.378C138.643 267.655 138.589 267.922 138.568 268.179C138.551 268.436 138.574 268.673 138.637 268.889C138.7 269.105 138.809 269.29 138.963 269.444C139.118 269.595 139.325 269.704 139.585 269.771C139.904 269.853 140.187 269.854 140.433 269.774C140.683 269.694 140.905 269.561 141.099 269.375C141.292 269.189 141.464 268.976 141.614 268.738L142.003 267.503C142.021 267.305 142.017 267.108 141.992 266.913C141.972 266.716 141.921 266.533 141.839 266.364C141.762 266.193 141.646 266.043 141.491 265.914C141.34 265.787 141.143 265.691 140.901 265.629C140.637 265.561 140.393 265.557 140.168 265.617C139.947 265.674 139.747 265.781 139.566 265.938C139.387 266.091 139.229 266.283 139.093 266.514C138.961 266.742 138.851 266.994 138.764 267.271ZM143.334 270.955C143.385 270.794 143.478 270.672 143.613 270.589C143.752 270.503 143.919 270.485 144.113 270.536C144.307 270.586 144.437 270.68 144.502 270.819C144.571 270.955 144.581 271.103 144.53 271.264C144.481 271.421 144.387 271.541 144.249 271.623C144.114 271.706 143.949 271.723 143.755 271.673C143.561 271.623 143.429 271.53 143.359 271.393C143.293 271.258 143.285 271.112 143.334 270.955Z" fill="#FBFBFB"/>
<rect x="47.0946" y="263.06" width="63.2089" height="13.4974" transform="rotate(14.48 47.0946 263.06)" stroke="#FBFBFB"/>
<path d="M55.2752 270.515L53.3198 278.087L52.3109 277.826L50.0072 271.002L48.499 276.842L47.4953 276.583L49.4507 269.011L50.4544 269.27L52.7697 276.114L54.2819 270.259L55.2752 270.515ZM60.1197 278.972L59.9088 279.789L55.8993 278.753L56.1101 277.937L60.1197 278.972ZM58.0575 271.234L56.1021 278.806L55.0984 278.546L57.0538 270.974L58.0575 271.234ZM60.4931 275.335L60.2822 276.152L56.8031 275.253L57.0139 274.437L60.4931 275.335ZM61.8122 272.203L61.6 273.025L57.6425 272.003L57.8547 271.181L61.8122 272.203ZM66.009 273.287L64.0536 280.859L63.0655 280.604L65.0209 273.032L66.009 273.287ZM68.4428 273.916L68.2307 274.737L62.3801 273.226L62.5923 272.405L68.4428 273.916ZM72.6273 280.632L75.4947 275.737L76.2228 275.925L75.271 277.87L72.2288 282.97L71.5059 282.783L72.6273 280.632ZM72.4368 274.947L72.2953 280.436L72.0364 282.92L71.3187 282.735L71.4383 274.689L72.4368 274.947ZM76.8315 281.601L79.3379 276.729L80.3415 276.988L76.5556 284.088L75.8379 283.902L76.8315 281.601ZM76.332 275.953L76.4288 281.614L76.3684 284.039L75.6455 283.852L75.5103 277.932L75.6143 275.768L76.332 275.953ZM84.3251 278.017L82.3697 285.589L81.3816 285.334L83.337 277.762L84.3251 278.017ZM86.7589 278.646L86.5467 279.467L80.6962 277.956L80.9084 277.135L86.7589 278.646ZM46.4992 285.209L47.1856 285.386C47.5219 285.473 47.8136 285.489 48.0607 285.435C48.3121 285.377 48.5166 285.266 48.6742 285.099C48.8362 284.93 48.949 284.723 49.0126 284.477C49.0878 284.185 49.1024 283.928 49.0563 283.706C49.0103 283.483 48.9032 283.296 48.735 283.146C48.5668 282.995 48.3336 282.881 48.0355 282.804C47.765 282.734 47.5119 282.726 47.2762 282.78C47.0447 282.831 46.845 282.939 46.677 283.102C46.5125 283.267 46.3962 283.481 46.3281 283.745L45.366 283.496C45.4654 283.111 45.6529 282.786 45.9285 282.521C46.2042 282.255 46.5412 282.074 46.9398 281.978C47.3417 281.882 47.775 281.894 48.2396 282.014C48.6972 282.132 49.0766 282.317 49.3778 282.568C49.6798 282.817 49.885 283.125 49.9933 283.493C50.1025 283.858 50.0962 284.276 49.9745 284.747C49.9252 284.938 49.8273 285.131 49.6808 285.326C49.5386 285.519 49.3497 285.684 49.1142 285.823C48.8821 285.963 48.603 286.055 48.277 286.101C47.9518 286.142 47.583 286.11 47.1704 286.003L46.3487 285.791L46.4992 285.209ZM46.295 285.999L46.4441 285.422L47.2658 285.634C47.7477 285.759 48.1316 285.919 48.4176 286.115C48.7035 286.311 48.912 286.527 49.043 286.764C49.1776 287.003 49.2517 287.245 49.2654 287.493C49.2835 287.738 49.2634 287.973 49.2052 288.199C49.1139 288.552 48.9722 288.85 48.7801 289.093C48.5915 289.336 48.3634 289.525 48.0957 289.66C47.8315 289.795 47.5413 289.873 47.225 289.895C46.9087 289.917 46.5789 289.884 46.2357 289.795C45.9063 289.71 45.6081 289.583 45.341 289.414C45.0775 289.246 44.8575 289.045 44.6813 288.811C44.506 288.574 44.3895 288.309 44.3318 288.016C44.2751 287.721 44.2901 287.405 44.377 287.068L45.339 287.317C45.271 287.58 45.2687 287.826 45.332 288.053C45.3989 288.281 45.5255 288.478 45.7118 288.645C45.9024 288.808 46.1451 288.928 46.4398 289.005C46.7345 289.081 47.0006 289.096 47.238 289.05C47.4798 289.001 47.6848 288.888 47.8529 288.709C48.0245 288.532 48.1511 288.285 48.2325 287.97C48.314 287.654 48.3148 287.379 48.235 287.144C48.1561 286.905 48.0078 286.706 47.7902 286.546C47.577 286.384 47.3074 286.261 46.9815 286.177L46.295 285.999ZM55.1515 291.143L54.9473 291.934L49.9913 290.654L50.1699 289.962L53.3636 287.841C53.7565 287.58 54.0666 287.354 54.2939 287.161C54.5255 286.965 54.6985 286.783 54.8127 286.612C54.9313 286.44 55.0161 286.254 55.0671 286.057C55.1316 285.807 55.1378 285.568 55.0857 285.34C55.038 285.11 54.931 284.909 54.7647 284.736C54.5984 284.564 54.3748 284.441 54.094 284.369C53.7577 284.282 53.4599 284.275 53.2005 284.349C52.9455 284.42 52.7325 284.557 52.5616 284.761C52.3907 284.964 52.2662 285.217 52.1883 285.519L51.2263 285.27C51.3364 284.844 51.5307 284.478 51.8093 284.173C52.0878 283.867 52.4377 283.658 52.8589 283.545C53.281 283.428 53.7608 283.44 54.2981 283.578C54.7766 283.702 55.1638 283.892 55.4597 284.15C55.7564 284.404 55.9556 284.707 56.0571 285.059C56.1629 285.408 56.1635 285.785 56.0587 286.191C56.0014 286.413 55.9051 286.628 55.7697 286.837C55.6387 287.044 55.4783 287.243 55.2883 287.434C55.1018 287.626 54.8937 287.809 54.664 287.983C54.4377 288.158 54.2002 288.326 53.9514 288.487L51.3551 290.163L55.1515 291.143ZM61.8638 289.038L61.5656 290.193C61.4053 290.813 61.2147 291.322 60.9936 291.72C60.7725 292.118 60.5244 292.42 60.2492 292.626C59.9741 292.833 59.6739 292.957 59.3488 292.998C59.028 293.038 58.6839 293.01 58.3164 292.915C58.0252 292.84 57.7659 292.734 57.5385 292.597C57.3112 292.461 57.1193 292.288 56.9628 292.077C56.8108 291.864 56.699 291.61 56.6274 291.314C56.5559 291.018 56.5316 290.675 56.5546 290.285C56.5776 289.895 56.6531 289.453 56.7812 288.957L57.0793 287.802C57.2396 287.182 57.4293 286.676 57.6486 286.285C57.8714 285.895 58.1194 285.601 58.3928 285.401C58.6671 285.198 58.9642 285.079 59.284 285.043C59.6074 285.009 59.9511 285.038 60.3151 285.132C60.6098 285.208 60.8708 285.315 61.0982 285.451C61.3299 285.585 61.5227 285.755 61.6765 285.961C61.8313 286.164 61.9432 286.411 62.0121 286.702C62.0854 286.991 62.111 287.329 62.0889 287.715C62.0668 288.101 61.9918 288.542 61.8638 289.038ZM60.558 290.099L60.9381 288.627C61.0258 288.287 61.082 287.984 61.1067 287.716C61.1357 287.447 61.1358 287.21 61.107 287.006C61.0782 286.803 61.0196 286.629 60.9312 286.484C60.8464 286.34 60.7344 286.222 60.5953 286.131C60.4605 286.037 60.2995 285.966 60.1123 285.917C59.8835 285.858 59.6695 285.849 59.4703 285.89C59.272 285.928 59.0884 286.023 58.9196 286.175C58.7543 286.329 58.6019 286.546 58.4625 286.828C58.3231 287.11 58.1984 287.465 58.0882 287.891L57.7082 289.363C57.6204 289.703 57.562 290.007 57.533 290.277C57.5075 290.548 57.51 290.789 57.5405 291C57.5718 291.208 57.6291 291.387 57.7122 291.538C57.7952 291.689 57.9037 291.813 58.0376 291.911C58.1758 292.006 58.3368 292.077 58.5205 292.124C58.7563 292.185 58.9742 292.193 59.1743 292.149C59.3744 292.104 59.558 292.002 59.7251 291.842C59.8966 291.679 60.0508 291.454 60.1876 291.168C60.3253 290.878 60.4488 290.522 60.558 290.099Z" fill="#FBFBFB"/>
<line x1="86.969" y1="287.599" x2="90.4642" y2="273.856" stroke="#FBFBFB"/>
</svg>
