<svg width="179" height="45" viewBox="0 0 179 45" fill="none" xmlns="http://www.w3.org/2000/svg">
<path d="M0.99 22.44C0.99 20.36 1.44 18.51 2.34 16.89C3.24 15.25 4.49 13.98 6.09 13.08C7.71 12.16 9.54 11.7 11.58 11.7C14.08 11.7 16.22 12.36 18 13.68C19.78 15 20.97 16.8 21.57 19.08H15.93C15.51 18.2 14.91 17.53 14.13 17.07C13.37 16.61 12.5 16.38 11.52 16.38C9.94 16.38 8.66 16.93 7.68 18.03C6.7 19.13 6.21 20.6 6.21 22.44C6.21 24.28 6.7 25.75 7.68 26.85C8.66 27.95 9.94 28.5 11.52 28.5C12.5 28.5 13.37 28.27 14.13 27.81C14.91 27.35 15.51 26.68 15.93 25.8H21.57C20.97 28.08 19.78 29.88 18 31.2C16.22 32.5 14.08 33.15 11.58 33.15C9.54 33.15 7.71 32.7 6.09 31.8C4.49 30.88 3.24 29.61 2.34 27.99C1.44 26.37 0.99 24.52 0.99 22.44ZM32.3316 33.24C30.6916 33.24 29.2116 32.89 27.8916 32.19C26.5916 31.49 25.5616 30.49 24.8016 29.19C24.0616 27.89 23.6916 26.37 23.6916 24.63C23.6916 22.91 24.0716 21.4 24.8316 20.1C25.5916 18.78 26.6316 17.77 27.9516 17.07C29.2716 16.37 30.7516 16.02 32.3916 16.02C34.0316 16.02 35.5116 16.37 36.8316 17.07C38.1516 17.77 39.1916 18.78 39.9516 20.1C40.7116 21.4 41.0916 22.91 41.0916 24.63C41.0916 26.35 40.7016 27.87 39.9216 29.19C39.1616 30.49 38.1116 31.49 36.7716 32.19C35.4516 32.89 33.9716 33.24 32.3316 33.24ZM32.3316 28.8C33.3116 28.8 34.1416 28.44 34.8216 27.72C35.5216 27 35.8716 25.97 35.8716 24.63C35.8716 23.29 35.5316 22.26 34.8516 21.54C34.1916 20.82 33.3716 20.46 32.3916 20.46C31.3916 20.46 30.5616 20.82 29.9016 21.54C29.2416 22.24 28.9116 23.27 28.9116 24.63C28.9116 25.97 29.2316 27 29.8716 27.72C30.5316 28.44 31.3516 28.8 32.3316 28.8ZM52.2131 20.52H49.4531V33H44.3231V20.52H42.4631V16.26H44.3231V15.78C44.3231 13.72 44.9131 12.16 46.0931 11.1C47.2731 10.02 49.0031 9.48 51.2831 9.48C51.6631 9.48 51.9431 9.49 52.1231 9.51V13.86C51.1431 13.8 50.4531 13.94 50.0531 14.28C49.6531 14.62 49.4531 15.23 49.4531 16.11V16.26H52.2131V20.52ZM63.0237 20.52H60.2637V33H55.1337V20.52H53.2737V16.26H55.1337V15.78C55.1337 13.72 55.7237 12.16 56.9037 11.1C58.0837 10.02 59.8137 9.48 62.0937 9.48C62.4737 9.48 62.7537 9.49 62.9337 9.51V13.86C61.9537 13.8 61.2637 13.94 60.8637 14.28C60.4637 14.62 60.2637 15.23 60.2637 16.11V16.26H63.0237V20.52ZM81.2142 24.36C81.2142 24.84 81.1842 25.34 81.1242 25.86H69.5142C69.5942 26.9 69.9242 27.7 70.5042 28.26C71.1042 28.8 71.8342 29.07 72.6942 29.07C73.9742 29.07 74.8642 28.53 75.3642 27.45H80.8242C80.5442 28.55 80.0342 29.54 79.2942 30.42C78.5742 31.3 77.6642 31.99 76.5642 32.49C75.4642 32.99 74.2342 33.24 72.8742 33.24C71.2342 33.24 69.7742 32.89 68.4942 32.19C67.2142 31.49 66.2142 30.49 65.4942 29.19C64.7742 27.89 64.4142 26.37 64.4142 24.63C64.4142 22.89 64.7642 21.37 65.4642 20.07C66.1842 18.77 67.1842 17.77 68.4642 17.07C69.7442 16.37 71.2142 16.02 72.8742 16.02C74.4942 16.02 75.9342 16.36 77.1942 17.04C78.4542 17.72 79.4342 18.69 80.1342 19.95C80.8542 21.21 81.2142 22.68 81.2142 24.36ZM75.9642 23.01C75.9642 22.13 75.6642 21.43 75.0642 20.91C74.4642 20.39 73.7142 20.13 72.8142 20.13C71.9542 20.13 71.2242 20.38 70.6242 20.88C70.0442 21.38 69.6842 22.09 69.5442 23.01H75.9642ZM99.7005 24.36C99.7005 24.84 99.6705 25.34 99.6105 25.86H88.0005C88.0805 26.9 88.4105 27.7 88.9905 28.26C89.5905 28.8 90.3205 29.07 91.1805 29.07C92.4605 29.07 93.3505 28.53 93.8505 27.45H99.3105C99.0305 28.55 98.5205 29.54 97.7805 30.42C97.0605 31.3 96.1505 31.99 95.0505 32.49C93.9505 32.99 92.7205 33.24 91.3605 33.24C89.7205 33.24 88.2605 32.89 86.9805 32.19C85.7005 31.49 84.7005 30.49 83.9805 29.19C83.2605 27.89 82.9005 26.37 82.9005 24.63C82.9005 22.89 83.2505 21.37 83.9505 20.07C84.6705 18.77 85.6705 17.77 86.9505 17.07C88.2305 16.37 89.7005 16.02 91.3605 16.02C92.9805 16.02 94.4205 16.36 95.6805 17.04C96.9405 17.72 97.9205 18.69 98.6205 19.95C99.3405 21.21 99.7005 22.68 99.7005 24.36ZM94.4505 23.01C94.4505 22.13 94.1505 21.43 93.5505 20.91C92.9505 20.39 92.2005 20.13 91.3005 20.13C90.4405 20.13 89.7105 20.38 89.1105 20.88C88.5305 21.38 88.1705 22.09 88.0305 23.01H94.4505ZM110.027 33.21C108.487 33.21 107.107 32.96 105.887 32.46C104.667 31.96 103.687 31.22 102.947 30.24C102.227 29.26 101.847 28.08 101.807 26.7H107.267C107.347 27.48 107.617 28.08 108.077 28.5C108.537 28.9 109.137 29.1 109.877 29.1C110.637 29.1 111.237 28.93 111.677 28.59C112.117 28.23 112.337 27.74 112.337 27.12C112.337 26.6 112.157 26.17 111.797 25.83C111.457 25.49 111.027 25.21 110.507 24.99C110.007 24.77 109.287 24.52 108.347 24.24C106.987 23.82 105.877 23.4 105.017 22.98C104.157 22.56 103.417 21.94 102.797 21.12C102.177 20.3 101.867 19.23 101.867 17.91C101.867 15.95 102.577 14.42 103.997 13.32C105.417 12.2 107.267 11.64 109.547 11.64C111.867 11.64 113.737 12.2 115.157 13.32C116.577 14.42 117.337 15.96 117.437 17.94H111.887C111.847 17.26 111.597 16.73 111.137 16.35C110.677 15.95 110.087 15.75 109.367 15.75C108.747 15.75 108.247 15.92 107.867 16.26C107.487 16.58 107.297 17.05 107.297 17.67C107.297 18.35 107.617 18.88 108.257 19.26C108.897 19.64 109.897 20.05 111.257 20.49C112.617 20.95 113.717 21.39 114.557 21.81C115.417 22.23 116.157 22.84 116.777 23.64C117.397 24.44 117.707 25.47 117.707 26.73C117.707 27.93 117.397 29.02 116.777 30C116.177 30.98 115.297 31.76 114.137 32.34C112.977 32.92 111.607 33.21 110.027 33.21ZM131.154 16.08C133.074 16.08 134.614 16.72 135.774 18C136.934 19.26 137.514 21 137.514 23.22V33H132.414V23.91C132.414 22.79 132.124 21.92 131.544 21.3C130.964 20.68 130.184 20.37 129.204 20.37C128.224 20.37 127.444 20.68 126.864 21.3C126.284 21.92 125.994 22.79 125.994 23.91V33H120.864V10.8H125.994V18.51C126.514 17.77 127.224 17.18 128.124 16.74C129.024 16.3 130.034 16.08 131.154 16.08ZM148.699 33.24C147.059 33.24 145.579 32.89 144.259 32.19C142.959 31.49 141.929 30.49 141.169 29.19C140.429 27.89 140.059 26.37 140.059 24.63C140.059 22.91 140.439 21.4 141.199 20.1C141.959 18.78 142.999 17.77 144.319 17.07C145.639 16.37 147.119 16.02 148.759 16.02C150.399 16.02 151.879 16.37 153.199 17.07C154.519 17.77 155.559 18.78 156.319 20.1C157.079 21.4 157.459 22.91 157.459 24.63C157.459 26.35 157.069 27.87 156.289 29.19C155.529 30.49 154.479 31.49 153.139 32.19C151.819 32.89 150.339 33.24 148.699 33.24ZM148.699 28.8C149.679 28.8 150.509 28.44 151.189 27.72C151.889 27 152.239 25.97 152.239 24.63C152.239 23.29 151.899 22.26 151.219 21.54C150.559 20.82 149.739 20.46 148.759 20.46C147.759 20.46 146.929 20.82 146.269 21.54C145.609 22.24 145.279 23.27 145.279 24.63C145.279 25.97 145.599 27 146.239 27.72C146.899 28.44 147.719 28.8 148.699 28.8ZM165.31 18.63C165.81 17.85 166.5 17.22 167.38 16.74C168.26 16.26 169.29 16.02 170.47 16.02C171.85 16.02 173.1 16.37 174.22 17.07C175.34 17.77 176.22 18.77 176.86 20.07C177.52 21.37 177.85 22.88 177.85 24.6C177.85 26.32 177.52 27.84 176.86 29.16C176.22 30.46 175.34 31.47 174.22 32.19C173.1 32.89 171.85 33.24 170.47 33.24C169.31 33.24 168.28 33 167.38 32.52C166.5 32.04 165.81 31.42 165.31 30.66V40.98H160.18V16.26H165.31V18.63ZM172.63 24.6C172.63 23.32 172.27 22.32 171.55 21.6C170.85 20.86 169.98 20.49 168.94 20.49C167.92 20.49 167.05 20.86 166.33 21.6C165.63 22.34 165.28 23.35 165.28 24.63C165.28 25.91 165.63 26.92 166.33 27.66C167.05 28.4 167.92 28.77 168.94 28.77C169.96 28.77 170.83 28.4 171.55 27.66C172.27 26.9 172.63 25.88 172.63 24.6Z" fill="#C83333"/>
</svg>
